<svg width="104" height="104" viewBox="0 0 104 104" fill="none" xmlns="http://www.w3.org/2000/svg">
<g clip-path="url(#clip0)">
<path d="M102.292 49.5967C101.492 48.7683 100.502 48.1962 99.4178 47.9217C100.061 46.8989 100.384 45.7071 100.34 44.467C100.225 41.2289 97.4437 38.5938 94.1405 38.5938H82.0744L82.0625 20.5157C82.0625 16.596 78.8736 13.4063 74.9531 13.4063C71.0327 13.4063 67.8438 16.596 67.8438 20.5157V25.3002C67.8438 26.5277 67.5843 27.7123 67.1066 28.7938C58.1604 28.4582 50.9844 21.079 50.9844 12.0519V9.85162C50.9844 8.45117 49.8458 7.31256 48.4453 7.31256H22.2422C20.8417 7.31256 19.7031 8.45117 19.7031 9.85162V11.5782C19.7031 20.8188 12.1859 28.336 2.94531 28.336H2.53906C1.13861 28.336 0 29.4746 0 30.8751V61.3438C0 80.8327 15.8549 96.6876 35.3438 96.6876C49.1682 96.6876 61.658 88.6673 67.4343 76.1719H88.672C90.0582 76.1719 91.4134 75.6006 92.3901 74.6056C93.3518 73.6257 93.8683 72.3443 93.843 70.997C93.8303 70.3115 93.6787 69.6576 93.4153 69.0626H94.1405C97.4437 69.0626 100.225 66.4275 100.34 63.1894C100.384 61.9389 100.057 60.7384 99.4019 59.7101C101.957 59.0229 103.901 56.7449 103.996 54.0488C104.056 52.3785 103.45 50.7972 102.292 49.5967ZM35.3438 93.6407C17.5354 93.6407 3.04688 79.1522 3.04688 61.3438V31.3829C13.9204 31.3273 22.75 22.4644 22.75 11.5782V10.3594H47.9375V12.0519C47.9375 22.0542 55.3904 30.3466 65.0341 31.6709C64.6683 32.0041 64.2732 32.3112 63.8455 32.5834L55.5229 37.8789C54.7882 38.347 53.94 38.5938 53.0696 38.5938H51.1954C50.6273 36.7157 48.8817 35.3438 46.8203 35.3438H38.2891C36.303 35.3438 34.6098 36.6173 33.9806 38.3907H26.5078C24.3234 38.3907 22.5469 40.168 22.5469 42.3516V68.5547C22.5469 70.7391 24.3234 72.5157 26.5078 72.5157H33.7188V87.5033C20.0324 86.7114 9.14062 75.3269 9.14062 61.4454V36.2031C19.6047 35.4414 27.944 26.9006 28.3851 16.3516H33.7188V29.7579C33.7188 30.5997 34.4011 31.2813 35.2422 31.2813C36.0833 31.2813 36.7656 30.5997 36.7656 29.7579V14.8282C36.7656 13.9863 36.0833 13.3047 35.2422 13.3047H26.8799C26.0389 13.3047 25.3565 13.9863 25.3565 14.8282V15.4717C25.3565 25.2534 17.3989 33.211 7.61719 33.211C6.77612 33.211 6.09375 33.8926 6.09375 34.7344V61.4454C6.09375 77.5176 19.1699 90.5938 35.2422 90.5938C36.0833 90.5938 36.7656 89.9122 36.7656 89.0704V75.4062C37.1219 75.5054 37.4956 75.5626 37.8828 75.5626H46.8203C48.3136 75.5626 49.6418 74.8429 50.4758 73.732L52.1008 74.6525C53.8543 75.6467 55.8459 76.1719 57.8605 76.1719H64.0431C58.5238 86.8558 47.4987 93.6407 35.3438 93.6407ZM33.7188 69.4688H26.5078C26.004 69.4688 25.5938 69.0586 25.5938 68.5547V42.3516C25.5938 41.8478 26.004 41.4376 26.5078 41.4376H33.7188V69.4688ZM97.7968 56.8751H85.9219C85.0808 56.8751 84.3984 57.5566 84.3984 58.3985C84.3984 59.2404 85.0808 59.9219 85.9219 59.9219H94.25C95.0839 59.9219 95.8631 60.2528 96.4431 60.8535C97.0223 61.4533 97.3246 62.2452 97.2945 63.0815C97.2374 64.6993 95.8218 66.0157 94.1405 66.0157H88.7656C88.7315 66.0157 88.6974 66.0189 88.6641 66.0204C88.6307 66.0189 88.5966 66.0157 88.5625 66.0157H85.9219C85.0808 66.0157 84.3984 66.6973 84.3984 67.5391C84.3984 68.381 85.0808 69.0626 85.9219 69.0626H88.5625C88.5966 69.0626 88.6307 69.0594 88.6641 69.0578C88.6974 69.0594 88.7315 69.0626 88.7656 69.0626C89.8646 69.0626 90.7762 69.956 90.7969 71.0549C90.8064 71.577 90.6001 72.0801 90.2161 72.472C89.8082 72.887 89.2457 73.1251 88.6728 73.1251H57.8605C56.3712 73.1251 54.8993 72.7371 53.6036 72.0023L51.3906 70.7479V67.3019C51.3906 66.4608 50.7083 65.7784 49.8672 65.7784C49.0261 65.7784 48.3438 66.4608 48.3438 67.3019V70.9922C48.3438 71.8325 47.6606 72.5157 46.8203 72.5157H37.8828C37.2671 72.5157 36.7656 72.0142 36.7656 71.3985V39.9141C36.7656 39.0739 37.4488 38.3907 38.2891 38.3907H46.8203C47.6606 38.3907 48.3438 39.0739 48.3438 39.9141V60.1925C48.3438 61.0344 49.0261 61.7159 49.8672 61.7159C50.7083 61.7159 51.3906 61.0344 51.3906 60.1925V41.6407H53.0696C54.52 41.6407 55.9348 41.2289 57.1583 40.4497L65.4816 35.1534C68.8689 32.9984 70.8906 29.3143 70.8906 25.3002V20.5157C70.8906 18.2758 72.7132 16.4532 74.9531 16.4532C77.1931 16.4532 79.0156 18.2758 79.0156 20.5165L79.0275 39.1032C79.0283 40.5021 80.1677 41.6407 81.5666 41.6407H94.1405C95.8218 41.6407 97.2374 42.957 97.2945 44.5749C97.3246 45.4112 97.0215 46.2031 96.4431 46.8029C95.8631 47.4036 95.0839 47.7344 94.25 47.7344H85.9219C85.0808 47.7344 84.3984 48.416 84.3984 49.2579C84.3984 50.0997 85.0808 50.7813 85.9219 50.7813H97.9062C98.7402 50.7813 99.5193 51.1122 100.099 51.7128C100.679 52.3127 100.981 53.1045 100.951 53.9409C100.894 55.5587 99.4781 56.8751 97.7968 56.8751Z" fill="#ED3129"/>
</g>
<defs>
<clipPath id="clip0">
<rect width="104" height="104" fill="white"/>
</clipPath>
</defs>
</svg>
