<svg width="104" height="104" viewBox="0 0 104 104" fill="none" xmlns="http://www.w3.org/2000/svg">
<g clip-path="url(#clip0)">
<path d="M88.9566 27.5864L87.7138 13.5824C87.5123 10.828 84.8681 8.93222 82.095 9.24198L81.498 4.70234C81.143 2.0213 78.8373 0 76.1351 0H27.8647C25.1607 0 22.8562 2.02211 22.5042 4.70295L21.9054 9.24178C19.2014 8.91759 16.5289 10.7569 16.286 13.5815L15.0434 27.5864C14.8647 29.602 17.3343 29.2675 18.5892 29.2675L26.248 99.4807C26.5302 102.057 28.6971 104 31.2886 104H56.1563C57.0093 104 57.7009 103.309 57.7009 102.455C57.7009 101.602 57.0095 100.911 56.1563 100.911H31.2886C30.2758 100.911 29.429 100.152 29.3189 99.1453L28.041 87.4313H75.9586L74.6809 99.1449C74.5709 100.152 73.725 100.911 72.7133 100.911H64.155C63.3021 100.911 62.6104 101.602 62.6104 102.455C62.6104 103.309 63.3019 104 64.155 104H72.7135C75.3039 104 77.4701 102.057 77.7518 99.4805L85.4108 29.2677C86.6655 29.2675 89.1353 29.602 88.9566 27.5864ZM76.2954 84.3422H27.705L23.1959 43.0095H80.8046L76.2954 84.3422ZM81.1413 39.9206H22.8587L21.6966 29.2677H82.3032L81.1413 39.9206ZM18.2697 26.1783L19.3631 13.8541C19.4399 12.9858 20.1551 12.3309 21.0271 12.3309H33.0082C33.8611 12.3309 34.5528 11.6395 34.5528 10.7863C34.5528 9.93322 33.8613 9.24178 33.0082 9.24178H25.0213L25.5669 5.10595C25.7181 3.95606 26.7059 3.08892 27.8649 3.08892H76.1353C77.2943 3.08892 78.2834 3.95667 78.4355 5.10616L78.9795 9.24178H41.2557C40.4028 9.24178 39.7111 9.93322 39.7111 10.7863C39.7111 11.6395 40.4026 12.3309 41.2557 12.3309H82.9751C83.8457 12.3309 84.5599 12.9858 84.6367 13.8547L85.7303 26.1783H18.2697Z" fill="#ED3129"/>
<path d="M62.0513 52.8793C59.8128 50.7955 56.8972 49.7055 53.8405 49.8174C50.7843 49.9267 47.9536 51.2196 45.8697 53.458L41.3703 58.2912C39.2864 60.5296 38.1989 63.4455 38.3082 66.5019C38.4174 69.5573 39.7097 72.387 41.9467 74.4707C41.9474 74.4713 41.948 74.4719 41.9486 74.4725C41.9492 74.4731 41.95 74.4737 41.9508 74.4744C44.1525 76.5233 46.9524 77.5367 49.7463 77.5367C52.816 77.5367 55.8785 76.3126 58.1301 73.894L62.6295 69.0609C66.9315 64.4402 66.6721 57.1809 62.0513 52.8793ZM60.369 66.9561L55.8695 71.7892C53.088 74.7768 48.6143 75.2653 45.2833 73.1575L52.1698 65.7603C52.7512 65.1361 52.7162 64.1586 52.0918 63.5775C51.4676 62.9964 50.4902 63.0313 49.909 63.6555L43.0211 71.0543C42.0256 69.7099 41.4566 68.0995 41.3955 66.3916C41.3156 64.1599 42.1097 62.0307 43.6313 60.3962L48.1307 55.563C49.6523 53.9285 51.7193 52.9845 53.951 52.9047C54.0534 52.9011 54.1554 52.8992 54.2573 52.8992C55.8555 52.8992 57.3916 53.3485 58.7192 54.1921L54.8889 58.3066C54.3075 58.9308 54.3425 59.9083 54.9669 60.4894C55.4759 60.9245 56.3493 61.138 57.1496 60.4114L60.9777 56.2993C63.3181 59.4711 63.1504 63.9683 60.369 66.9561Z" fill="#ED3129"/>
</g>
<defs>
<clipPath id="clip0">
<rect width="104" height="104" fill="white"/>
</clipPath>
</defs>
</svg>
