<svg width="104" height="104" viewBox="0 0 104 104" fill="none" xmlns="http://www.w3.org/2000/svg">
<g clip-path="url(#clip0)">
<path d="M41.9771 83.8605H21.8842C19.0392 83.8605 16.7247 81.546 16.7247 78.701V73.0509C17.176 73.156 17.6395 73.2143 18.1101 73.2143C18.3239 73.2143 18.5394 73.2032 18.7552 73.1808C19.1093 73.144 19.4552 73.0761 19.7911 72.9821V78.701C19.7911 79.8552 20.73 80.7941 21.8842 80.7941H41.5746C42.4213 80.7941 43.1078 80.1078 43.1078 79.2609C43.1078 78.4139 42.4213 77.7277 41.5746 77.7277H22.8575V70.9803C22.8677 70.9678 22.8788 70.9562 22.8888 70.9435C24.9088 68.4562 24.6559 64.8534 22.3955 62.6645C23.3827 62.2945 24.2879 61.668 24.9991 60.7922C27.0191 58.3049 26.7662 54.702 24.5058 52.5132C25.493 52.1432 26.3982 51.5166 27.1094 50.6409C28.1434 49.3675 28.6197 47.7676 28.4505 46.1361C28.2812 44.5047 27.4868 43.0365 26.2134 42.0025L22.8573 39.2771V9.1993H29.6462L29.6901 9.33791C30.201 10.9476 31.6788 12.0292 33.3676 12.0292H45.2177C46.9065 12.0292 48.3843 10.9478 48.8954 9.3377L48.9398 9.1993H55.0325V30.4762C55.0325 31.3232 55.7188 32.0094 56.5658 32.0094C57.4127 32.0094 58.099 31.3232 58.099 30.4762V8.22602C58.099 7.07181 57.16 6.13287 56.006 6.13287H48.5266C47.4317 6.13287 46.4733 6.83427 46.1419 7.87808L45.9731 8.41021C45.8682 8.74077 45.5648 8.96278 45.2181 8.96278H33.368C33.0215 8.96278 32.7181 8.74077 32.6133 8.41041L32.4444 7.87808C32.1132 6.83427 31.1551 6.13287 30.0597 6.13287H21.8842C20.73 6.13287 19.7911 7.07202 19.7911 8.22602V36.7951C18.8853 36.1203 17.8306 35.7149 16.7247 35.609V20.0034C16.7247 19.1564 16.0382 18.4701 15.1914 18.4701C14.3498 18.4701 13.6672 19.1482 13.659 19.988C12.5331 19.3197 11.2278 19.0307 9.90165 19.1683C8.27011 19.3375 6.8021 20.1319 5.7681 21.4053C4.7341 22.6787 4.25779 24.2786 4.42685 25.9101C4.59611 27.5415 5.39052 29.0097 6.66391 30.0437L13.6582 35.7235V36.0978C12.7731 36.4852 11.9866 37.0795 11.3598 37.8512C10.3258 39.1246 9.84952 40.7244 10.0186 42.356C10.1688 43.8054 10.8138 45.125 11.8484 46.1267C10.8404 46.5051 9.94622 47.1445 9.24932 48.0025C7.22895 50.4906 7.48224 54.0943 9.74383 56.2831C8.75624 56.6525 7.85041 57.2776 7.139 58.1538C6.1048 59.4272 5.62848 61.0271 5.79775 62.6586C5.96701 64.29 6.76142 65.7582 8.03481 66.7924L13.658 71.3587V78.7007C13.658 83.2366 17.3482 86.9267 21.884 86.9267H41.9769C42.8237 86.9267 43.5101 86.2405 43.5101 85.3935C43.5101 84.5466 42.8239 83.8605 41.9771 83.8605ZM8.59699 27.6631C7.95958 27.1455 7.56176 26.4106 7.47692 25.5937C7.39229 24.7768 7.63065 23.9758 8.14847 23.3382C8.66608 22.7008 9.40101 22.3032 10.2181 22.2181C11.0342 22.1331 11.836 22.3717 12.4734 22.8897L13.6582 23.8519V31.7731L8.59699 27.6631ZM13.7404 39.7841C14.258 39.1467 14.9929 38.7491 15.81 38.664C15.918 38.6528 16.0257 38.6472 16.133 38.6472C16.8359 38.6472 17.5123 38.8864 18.0655 39.3356L24.281 44.3827C24.9184 44.9003 25.3162 45.6352 25.401 46.4521C25.4857 47.269 25.2473 48.07 24.7297 48.7074C23.6609 50.0235 21.7209 50.2253 20.4046 49.1559L14.1891 44.1088C13.5517 43.5911 13.1539 42.8562 13.0691 42.0393C12.9842 41.2226 13.2228 40.4217 13.7404 39.7841ZM11.6301 49.9356C12.1477 49.2982 12.8826 48.9006 13.6997 48.8155C14.4827 48.7352 15.2499 48.9533 15.8738 49.4274L18.4713 51.5367C18.5007 51.5606 18.5318 51.5804 18.5615 51.6037L22.1702 54.5342C23.4863 55.603 23.6875 57.5432 22.6187 58.8591C21.55 60.175 19.6098 60.3764 18.2936 59.3076L12.0784 54.2605C10.7625 53.1919 10.5613 51.2517 11.6301 49.9356ZM8.84823 62.3424C8.7636 61.5257 9.00196 60.7247 9.51978 60.0871C10.1265 59.3399 11.0144 58.9519 11.9093 58.9519C12.5543 58.9519 13.2017 59.1561 13.7517 59.5695L16.361 61.6884C16.3908 61.7127 16.4227 61.733 16.453 61.7565L20.0601 64.6857C21.3762 65.7545 21.5774 67.6947 20.5086 69.0106C19.9908 69.648 19.2559 70.0458 18.439 70.1307C17.6223 70.2151 16.8212 69.9768 16.1837 69.4591L9.9685 64.412C9.33068 63.8944 8.93286 63.1593 8.84823 62.3424Z" fill="#ED3129"/>
<path d="M15.1914 15.0026C16.0382 15.0026 16.7246 14.3163 16.7246 13.4694V8.226C16.7246 5.38097 19.0394 3.06643 21.8842 3.06643H56.0058C58.8506 3.06643 61.1652 5.38097 61.1652 8.226V36.5181C61.1652 37.3651 61.8514 38.0513 62.6984 38.0513C63.5453 38.0513 64.2316 37.3651 64.2316 36.5181V8.226C64.2318 3.69014 60.5417 0 56.0058 0H21.8842C17.3483 0 13.6582 3.69014 13.6582 8.226V13.4692C13.6582 14.3161 14.3447 15.0026 15.1914 15.0026Z" fill="#ED3129"/>
<path d="M99.2412 101.474L88.7812 89.1693C88.2327 88.5241 87.2652 88.4458 86.6202 88.9943C85.975 89.5428 85.8965 90.5104 86.4452 91.1553L96.9052 103.46C97.2084 103.817 97.6399 104 98.0741 104C98.4251 104 98.778 103.88 99.0664 103.635C99.7114 103.087 99.7899 102.119 99.2412 101.474Z" fill="#ED3129"/>
<path d="M61.6993 97.2125C61.4614 96.9018 61.1136 96.6941 60.7273 96.6315C55.3968 95.7699 51.0854 91.6371 49.9991 86.348L49.434 83.5962C48.7946 80.4827 49.3093 77.2472 50.8834 74.4858L58.4679 61.1797C59.4543 59.4495 59.3004 57.3164 58.0758 55.7454L50.9719 46.633C48.8935 43.9671 48.9978 40.1831 51.2195 37.6357L51.5991 37.2003C51.8021 36.9674 52.0548 36.9286 52.1871 36.9259C52.3228 36.9216 52.5734 36.9527 52.7852 37.1774L59.5639 44.3696C60.1446 44.9859 61.1149 45.0141 61.7314 44.4336C62.3476 43.8528 62.3762 42.8824 61.7954 42.266L55.0168 35.074C54.27 34.2814 53.2172 33.8372 52.128 33.8599C51.039 33.881 50.004 34.3636 49.2881 35.1844L48.9084 35.6198C45.7234 39.2717 45.5742 44.696 48.5535 48.518L55.6574 57.6304C56.115 58.2174 56.1726 59.0144 55.804 59.661L48.2195 72.9671C46.2764 76.3757 45.6411 80.3697 46.4304 84.2129L46.9954 86.9647C48.2943 93.29 53.3294 98.2754 59.6254 99.5473L62.5782 103.399C62.8801 103.793 63.3354 104 63.7962 104C64.1214 104 64.4495 103.897 64.7277 103.684C65.3999 103.168 65.527 102.206 65.0119 101.534L61.6993 97.2125Z" fill="#ED3129"/>
<path d="M80.579 79.5201C80.246 79.1284 80.0626 78.6296 80.0626 78.1157V70.2221C80.0626 64.6925 77.9739 59.4313 74.1814 55.4073L66.2792 47.0233C65.6984 46.407 64.728 46.3788 64.1116 46.9593C63.4955 47.5401 63.4669 48.5105 64.0477 49.1269L71.9498 57.5109C75.2039 60.9635 76.9962 65.4777 76.9962 70.2223V78.1159C76.9962 79.3566 77.4388 80.5607 78.2426 81.5063L82.1991 86.161C82.5025 86.5177 82.934 86.7013 83.3682 86.7013C83.7192 86.7013 84.0719 86.5815 84.3605 86.3364C85.0057 85.7877 85.0842 84.8203 84.5357 84.1752L80.579 79.5201Z" fill="#ED3129"/>
<path d="M39.293 16.7055C35.3608 16.7055 32.1619 19.9044 32.1619 23.8368C32.1619 27.7688 35.3608 30.9679 39.293 30.9679C40.4974 30.9679 41.6324 30.6666 42.6284 30.1373L44.9824 32.4913C45.2817 32.7906 45.6742 32.9402 46.0665 32.9402C46.4588 32.9402 46.8513 32.7906 47.1506 32.4911C47.7493 31.8923 47.7493 30.9217 47.1506 30.3229L44.9716 28.1441C45.8821 26.9466 46.424 25.4542 46.424 23.8372C46.4242 19.9044 43.2251 16.7055 39.293 16.7055ZM35.2283 23.8368C35.2283 21.5954 37.0516 19.7719 39.293 19.7719C41.5343 19.7719 43.3578 21.5954 43.3578 23.8368C43.3578 26.0781 41.5343 27.9015 39.293 27.9015C37.0516 27.9015 35.2283 26.0779 35.2283 23.8368Z" fill="#ED3129"/>
<path d="M43.2513 69.0201H31.2597C31.0121 69.0201 30.8106 68.8187 30.8106 68.5709V62.0106C30.8106 61.7628 31.0121 61.5615 31.2597 61.5615H46.6503C47.4971 61.5615 48.1835 60.8752 48.1835 60.0283C48.1835 59.1813 47.4971 58.4951 46.6503 58.4951H31.2597C29.3213 58.4951 27.7441 60.0722 27.7441 62.0106V68.5709C27.7441 70.5093 29.3213 72.0865 31.2597 72.0865H43.2513C44.098 72.0865 44.7845 71.4002 44.7845 70.5533C44.7845 69.7063 44.098 69.0201 43.2513 69.0201Z" fill="#ED3129"/>
</g>
<defs>
<clipPath id="clip0">
<rect width="104" height="104" fill="white"/>
</clipPath>
</defs>
</svg>
