<svg width="104" height="104" viewBox="0 0 104 104" fill="none" xmlns="http://www.w3.org/2000/svg">
<g clip-path="url(#clip0)">
<path d="M83.7669 12.7969H43.106C41.9843 12.7969 41.0747 13.7065 41.0747 14.8281C41.0747 15.9498 41.9841 16.8594 43.106 16.8594H83.7669C84.8886 16.8594 85.7981 15.9498 85.7981 14.8281C85.7981 13.7065 84.8886 12.7969 83.7669 12.7969Z" fill="#ED3129"/>
<path d="M22.5101 13.392C22.1325 13.0142 21.6084 12.7969 21.0742 12.7969C20.5378 12.7969 20.0159 13.014 19.6381 13.392C19.2583 13.7698 19.043 14.2939 19.043 14.8281C19.043 15.3623 19.2583 15.8864 19.6381 16.264C20.0159 16.642 20.5378 16.8594 21.0742 16.8594C21.6084 16.8594 22.1325 16.642 22.5101 16.264C22.8879 15.8864 23.1055 15.3623 23.1055 14.8281C23.1055 14.2939 22.8881 13.7698 22.5101 13.392Z" fill="#ED3129"/>
<path d="M15.0453 13.392C14.6677 13.0142 14.1436 12.7969 13.6094 12.7969C13.0752 12.7969 12.5511 13.014 12.1733 13.392C11.7955 13.77 11.5781 14.2939 11.5781 14.8281C11.5781 15.3623 11.7953 15.8864 12.1733 16.264C12.5511 16.642 13.0752 16.8594 13.6094 16.8594C14.1436 16.8594 14.6677 16.642 15.0453 16.264C15.4233 15.8864 15.6406 15.3623 15.6406 14.8281C15.6406 14.2939 15.4233 13.7698 15.0453 13.392Z" fill="#ED3129"/>
<path d="M29.975 13.392C29.5973 13.0142 29.0733 12.7969 28.5391 12.7969C28.0026 12.7969 27.4787 13.014 27.103 13.392C26.7231 13.7698 26.5078 14.2939 26.5078 14.8281C26.5078 15.3623 26.7231 15.8864 27.103 16.264C27.4787 16.642 28.0026 16.8594 28.5391 16.8594C29.0733 16.8594 29.5973 16.642 29.975 16.264C30.353 15.8864 30.5703 15.3623 30.5703 14.8281C30.5703 14.2939 30.353 13.7698 29.975 13.392Z" fill="#ED3129"/>
<path d="M93.8438 5.48438H2.03125C0.909594 5.48438 0 6.39397 0 7.51562V96.4844C0 97.606 0.909594 98.5156 2.03125 98.5156H76.9844C78.106 98.5156 79.0156 97.606 79.0156 96.4844C79.0156 95.3627 78.106 94.4531 76.9844 94.4531H4.0625V24.1719H91.7904C91.7979 24.1719 91.8052 24.1709 91.8125 24.1707V66.4219C91.8125 67.5435 92.7221 68.4531 93.8438 68.4531C94.9654 68.4531 95.875 67.5435 95.875 66.4219V7.51562C95.875 6.39397 94.9654 5.48438 93.8438 5.48438ZM91.8125 20.1106C91.805 20.1106 91.7977 20.1094 91.7904 20.1094H4.0625V9.54688H91.8125V20.1106Z" fill="#ED3129"/>
<path d="M86.4599 95.0483C86.0823 94.6705 85.5603 94.4531 85.024 94.4531C84.4898 94.4531 83.9658 94.6703 83.588 95.0483C83.2101 95.4263 82.9928 95.9502 82.9928 96.4844C82.9928 97.0186 83.2099 97.5427 83.588 97.9203C83.9658 98.2981 84.4898 98.5156 85.024 98.5156C85.5603 98.5156 86.0823 98.2983 86.4599 97.9203C86.8378 97.5427 87.0553 97.0186 87.0553 96.4844C87.0553 95.9502 86.838 95.4261 86.4599 95.0483Z" fill="#ED3129"/>
<path d="M102.038 82.3412C102.033 82.3361 102.028 82.3306 102.023 82.3256L89.9972 70.5608C89.2018 69.7826 87.928 69.7893 87.1404 70.5764L85.0271 72.6897L82.7418 70.4043C85.681 66.9073 87.4545 62.3994 87.4545 57.4844C87.4545 46.396 78.4335 37.375 67.3451 37.375C60.3007 37.375 54.0916 41.0166 50.4989 46.5156H21.9375C15.8895 46.5156 10.9688 51.4363 10.9688 57.4844C10.9688 63.5324 15.8895 68.4531 21.9375 68.4531H50.4987C54.0914 73.9521 60.3003 77.5938 67.3449 77.5938C72.058 77.5938 76.397 75.9633 79.8292 73.2375L82.1541 75.5625L80.4034 77.3132C80.0197 77.6969 79.8056 78.2182 79.8084 78.7607C79.8113 79.3032 80.0315 79.8222 80.4192 80.2017L92.4375 91.9594C93.7024 93.2197 95.3871 93.9124 97.1868 93.9124C97.198 93.9124 97.2094 93.9124 97.2205 93.9124C99.0296 93.9037 100.729 93.1956 102.006 91.9185C103.283 90.6415 103.991 88.9421 104 87.1329C104.009 85.3168 103.312 83.615 102.038 82.3412ZM48.4575 64.3906H21.9375C18.1293 64.3906 15.0313 61.2926 15.0313 57.4844C15.0313 53.6762 18.1293 50.5781 21.9375 50.5781H48.4575C47.6672 52.7329 47.2355 55.0591 47.2355 57.4844C47.2355 59.9097 47.6672 62.2359 48.4575 64.3906ZM67.3449 73.5312C58.4966 73.5312 51.298 66.3327 51.298 57.4844C51.298 48.636 58.4966 41.4375 67.3449 41.4375C76.1932 41.4375 83.3918 48.636 83.3918 57.4844C83.3918 66.3327 76.1932 73.5312 67.3449 73.5312ZM99.1334 89.0459C98.6184 89.5609 97.9323 89.8463 97.201 89.8499C97.1966 89.8499 97.1919 89.8499 97.1874 89.8499C96.4688 89.8499 95.7995 89.5761 95.3016 89.078C95.2963 89.073 95.291 89.0675 95.2858 89.0624L84.7281 78.7337L86.462 76.9998C86.4624 76.9994 86.4628 76.9992 86.4632 76.9988C86.4636 76.9984 86.4638 76.998 86.4642 76.9976L88.5922 74.8696L99.1721 85.2203C99.6692 85.7208 99.9408 86.3925 99.9375 87.1132C99.9339 87.8447 99.6485 88.5308 99.1334 89.0459Z" fill="#ED3129"/>
<path d="M34.842 56.0422C34.4621 55.6624 33.9401 55.4471 33.4059 55.4471C32.8694 55.4471 32.3456 55.6644 31.9698 56.0422C31.5899 56.42 31.3746 56.9423 31.3746 57.4783C31.3746 58.0126 31.5899 58.5366 31.9698 58.9144C32.3476 59.292 32.8696 59.5096 33.4059 59.5096C33.9401 59.5096 34.4621 59.2922 34.842 58.9144C35.2196 58.5346 35.4371 58.0126 35.4371 57.4783C35.4371 56.9441 35.2198 56.42 34.842 56.0422Z" fill="#ED3129"/>
<path d="M26.4203 56.1031C26.0427 55.7253 25.5186 55.5099 24.9844 55.5099C24.4502 55.5099 23.9261 55.7253 23.5483 56.1031C23.1705 56.4827 22.9531 57.0068 22.9531 57.5412C22.9531 58.0754 23.1703 58.5995 23.5483 58.9771C23.9261 59.3549 24.4502 59.5724 24.9844 59.5724C25.5186 59.5724 26.0427 59.3551 26.4203 58.9771C26.7981 58.5972 27.0156 58.0754 27.0156 57.5412C27.0156 57.0068 26.7983 56.4827 26.4203 56.1031Z" fill="#ED3129"/>
<path d="M43.2613 55.9792C42.8837 55.6014 42.3617 55.384 41.8254 55.384C41.2912 55.384 40.7672 55.6012 40.3893 55.9792C40.0115 56.3572 39.7942 56.8811 39.7942 57.4153C39.7942 57.9495 40.0113 58.4736 40.3893 58.8512C40.7672 59.229 41.2912 59.4465 41.8254 59.4465C42.3597 59.4465 42.8837 59.2292 43.2613 58.8512C43.6391 58.4736 43.8567 57.9495 43.8567 57.4153C43.8567 56.8811 43.6393 56.357 43.2613 55.9792Z" fill="#ED3129"/>
<path d="M67.3448 47.125C66.2232 47.125 65.3136 48.0346 65.3136 49.1562C65.3136 50.2779 66.2232 51.1875 67.3448 51.1875C70.8171 51.1875 73.6417 54.0122 73.6417 57.4844C73.6417 58.606 74.5513 59.5156 75.673 59.5156C76.7946 59.5156 77.7042 58.606 77.7042 57.4844C77.7042 51.7723 73.0569 47.125 67.3448 47.125Z" fill="#ED3129"/>
<path d="M40.7266 74.9531H24.9846C23.863 74.9531 22.9534 75.8627 22.9534 76.9844C22.9534 78.106 23.863 79.0156 24.9846 79.0156H40.7266C41.8483 79.0156 42.7579 78.106 42.7579 76.9844C42.7579 75.8627 41.8483 74.9531 40.7266 74.9531Z" fill="#ED3129"/>
<path d="M50.7019 75.5485C50.3243 75.1707 49.802 74.9534 49.266 74.9534C48.7318 74.9534 48.2077 75.1705 47.8299 75.5485C47.4521 75.9265 47.2347 76.4504 47.2347 76.9846C47.2347 77.5188 47.4519 78.0429 47.8299 78.4205C48.2097 78.7983 48.7318 79.0159 49.266 79.0159C49.8002 79.0159 50.3243 78.7983 50.7019 78.4205C51.0817 78.0429 51.2972 77.5188 51.2972 76.9846C51.2972 76.4504 51.0817 75.9263 50.7019 75.5485Z" fill="#ED3129"/>
</g>
<defs>
<clipPath id="clip0">
<rect width="104" height="104" fill="white"/>
</clipPath>
</defs>
</svg>
