<svg width="64" height="64" viewBox="0 0 64 64" fill="none" xmlns="http://www.w3.org/2000/svg">
<g clip-path="url(#clip0)">
<path d="M62.1241 45.4286C63.1601 45.4286 64 44.5887 64 43.5527V9.30839C64 8.27241 63.1601 7.43252 62.1241 7.43252H52.5274V3.75369H54.6823C55.7183 3.75369 56.5582 2.9138 56.5582 1.87782C56.5582 0.841842 55.7183 0.00195312 54.6823 0.00195312H9.53767C8.50169 0.00195312 7.6618 0.841842 7.6618 1.87782C7.6618 2.9138 8.50169 3.75369 9.53767 3.75369H11.5774V7.43252H1.87587C0.839889 7.43252 0 8.27241 0 9.30839V43.5527C0 44.5887 0.839889 45.4286 1.87587 45.4286H7.6618V48.6782H1.87587C0.839889 48.6782 0 49.5181 0 50.5541C0 51.5901 0.839889 52.43 1.87587 52.43H7.6618V60.246H5.39162C4.35564 60.246 3.51575 61.0859 3.51575 62.1218C3.51575 63.1578 4.35564 63.9977 5.39162 63.9977H13.4531C14.4891 63.9977 15.329 63.1578 15.329 62.1218C15.329 61.0859 14.4891 60.246 13.4531 60.246H11.4134V52.43H52.8063V60.246H50.0757C49.0397 60.246 48.1998 61.0859 48.1998 62.1218C48.1998 63.1578 49.0397 63.9977 50.0757 63.9977H58.7131C59.749 63.9977 60.5889 63.1578 60.5889 62.1218C60.5889 61.0859 59.749 60.246 58.7131 60.246H56.5582V52.43H62.1241C63.1601 52.43 64 51.5901 64 50.5541C64 49.5181 63.1601 48.6782 62.1241 48.6782H56.5582V45.4286H62.1241ZM48.7756 7.43252H33.8758V3.75369H48.7757V7.43252H48.7756ZM15.3291 3.75369H30.1241V7.43252H15.3291V3.75369ZM3.75174 11.1843H60.2483V41.6769H3.75174V11.1843ZM30.1585 45.4286V48.6782H22.5845V45.4286H30.1585ZM33.9102 45.4286H41.405V48.6782H33.9102V45.4286ZM11.4135 45.4286H18.8328V48.6782H11.4135V45.4286ZM52.8064 48.6782H45.1568V45.4286H52.8064V48.6782Z" fill="#F53E02"/>
</g>
<defs>
<clipPath id="clip0">
<rect width="64" height="64" fill="white"/>
</clipPath>
</defs>
</svg>
