<svg width="64" height="64" viewBox="0 0 64 64" fill="none" xmlns="http://www.w3.org/2000/svg">
<path d="M32 58C31.2089 58 30.4355 57.7654 29.7777 57.3259C29.1199 56.8864 28.6072 56.2617 28.3045 55.5307C28.0017 54.7998 27.9225 53.9956 28.0769 53.2196C28.2312 52.4437 28.6122 51.731 29.1716 51.1716C29.731 50.6122 30.4437 50.2312 31.2196 50.0769C31.9956 49.9225 32.7998 50.0017 33.5307 50.3045C34.2617 50.6072 34.8864 51.1199 35.3259 51.7777C35.7654 52.4355 36 53.2089 36 54C36 55.0609 35.5786 56.0783 34.8284 56.8284C34.0783 57.5786 33.0609 58 32 58ZM32 52C31.6044 52 31.2178 52.1173 30.8889 52.3371C30.56 52.5568 30.3036 52.8692 30.1522 53.2346C30.0009 53.6001 29.9613 54.0022 30.0384 54.3902C30.1156 54.7782 30.3061 55.1345 30.5858 55.4142C30.8655 55.6939 31.2219 55.8844 31.6098 55.9616C31.9978 56.0388 32.3999 55.9991 32.7654 55.8478C33.1308 55.6964 33.4432 55.4401 33.663 55.1112C33.8827 54.7823 34 54.3956 34 54C34 53.4696 33.7893 52.9609 33.4142 52.5858C33.0392 52.2107 32.5304 52 32 52Z" fill="#F53E02"/>
<path d="M43 55H39C38.7348 55 38.4804 54.8946 38.2929 54.7071C38.1054 54.5196 38 54.2652 38 54C38 53.7348 38.1054 53.4804 38.2929 53.2929C38.4804 53.1054 38.7348 53 39 53H43C43.2652 53 43.5196 53.1054 43.7071 53.2929C43.8946 53.4804 44 53.7348 44 54C44 54.2652 43.8946 54.5196 43.7071 54.7071C43.5196 54.8946 43.2652 55 43 55Z" fill="#F53E02"/>
<path d="M25 55H21C20.7348 55 20.4804 54.8946 20.2929 54.7071C20.1054 54.5196 20 54.2652 20 54C20 53.7348 20.1054 53.4804 20.2929 53.2929C20.4804 53.1054 20.7348 53 21 53H25C25.2652 53 25.5196 53.1054 25.7071 53.2929C25.8946 53.4804 26 53.7348 26 54C26 54.2652 25.8946 54.5196 25.7071 54.7071C25.5196 54.8946 25.2652 55 25 55Z" fill="#F53E02"/>
<path d="M22 8C22.5523 8 23 7.55228 23 7C23 6.44772 22.5523 6 22 6C21.4477 6 21 6.44772 21 7C21 7.55228 21.4477 8 22 8Z" fill="#F53E02"/>
<path d="M18 8C18.5523 8 19 7.55228 19 7C19 6.44772 18.5523 6 18 6C17.4477 6 17 6.44772 17 7C17 7.55228 17.4477 8 18 8Z" fill="#F53E02"/>
<path d="M26 21H22C21.2044 21 20.4413 20.6839 19.8787 20.1213C19.3161 19.5587 19 18.7956 19 18V14C19 13.2044 19.3161 12.4413 19.8787 11.8787C20.4413 11.3161 21.2044 11 22 11H26C26.7956 11 27.5587 11.3161 28.1213 11.8787C28.6839 12.4413 29 13.2044 29 14V18C29 18.7956 28.6839 19.5587 28.1213 20.1213C27.5587 20.6839 26.7956 21 26 21ZM22 13C21.7348 13 21.4804 13.1054 21.2929 13.2929C21.1054 13.4804 21 13.7348 21 14V18C21 18.2652 21.1054 18.5196 21.2929 18.7071C21.4804 18.8946 21.7348 19 22 19H26C26.2652 19 26.5196 18.8946 26.7071 18.7071C26.8946 18.5196 27 18.2652 27 18V14C27 13.7348 26.8946 13.4804 26.7071 13.2929C26.5196 13.1054 26.2652 13 26 13H22Z" fill="#F53E02"/>
<path d="M43 39H39C38.2044 39 37.4413 38.6839 36.8787 38.1213C36.3161 37.5587 36 36.7956 36 36V32C36 31.2044 36.3161 30.4413 36.8787 29.8787C37.4413 29.3161 38.2044 29 39 29H43C43.7956 29 44.5587 29.3161 45.1213 29.8787C45.6839 30.4413 46 31.2044 46 32V36C46 36.7956 45.6839 37.5587 45.1213 38.1213C44.5587 38.6839 43.7956 39 43 39ZM39 31C38.7348 31 38.4804 31.1054 38.2929 31.2929C38.1054 31.4804 38 31.7348 38 32V36C38 36.2652 38.1054 36.5196 38.2929 36.7071C38.4804 36.8946 38.7348 37 39 37H43C43.2652 37 43.5196 36.8946 43.7071 36.7071C43.8946 36.5196 44 36.2652 44 36V32C44 31.7348 43.8946 31.4804 43.7071 31.2929C43.5196 31.1054 43.2652 31 43 31H39Z" fill="#F53E02"/>
<path d="M46 44H18C17.7348 44 17.4804 43.8946 17.2929 43.7071C17.1054 43.5196 17 43.2652 17 43C17 42.7348 17.1054 42.4804 17.2929 42.2929C17.4804 42.1054 17.7348 42 18 42H46C46.2652 42 46.5196 42.1054 46.7071 42.2929C46.8946 42.4804 47 42.7348 47 43C47 43.2652 46.8946 43.5196 46.7071 43.7071C46.5196 43.8946 46.2652 44 46 44Z" fill="#F53E02"/>
<path d="M30 48H18C17.7348 48 17.4804 47.8946 17.2929 47.7071C17.1054 47.5196 17 47.2652 17 47C17 46.7348 17.1054 46.4804 17.2929 46.2929C17.4804 46.1054 17.7348 46 18 46H30C30.2652 46 30.5196 46.1054 30.7071 46.2929C30.8946 46.4804 31 46.7348 31 47C31 47.2652 30.8946 47.5196 30.7071 47.7071C30.5196 47.8946 30.2652 48 30 48Z" fill="#F53E02"/>
<path d="M47 62H17C15.6744 61.9984 14.4036 61.4711 13.4662 60.5338C12.5289 59.5964 12.0016 58.3256 12 57V22C12 21.7348 12.1054 21.4804 12.2929 21.2929C12.4804 21.1054 12.7348 21 13 21C13.2652 21 13.5196 21.1054 13.7071 21.2929C13.8946 21.4804 14 21.7348 14 22V57C14 57.7957 14.3161 58.5587 14.8787 59.1213C15.4413 59.6839 16.2044 60 17 60H47C47.7957 60 48.5587 59.6839 49.1213 59.1213C49.6839 58.5587 50 57.7957 50 57V47C50 46.7348 50.1054 46.4804 50.2929 46.2929C50.4804 46.1054 50.7348 46 51 46C51.2652 46 51.5196 46.1054 51.7071 46.2929C51.8946 46.4804 52 46.7348 52 47V57C51.9984 58.3256 51.4711 59.5964 50.5338 60.5338C49.5964 61.4711 48.3256 61.9984 47 62Z" fill="#F53E02"/>
<path d="M51 44C50.7348 44 50.4804 43.8946 50.2929 43.7071C50.1054 43.5196 50 43.2652 50 43V7C50 6.20435 49.6839 5.44129 49.1213 4.87868C48.5587 4.31607 47.7957 4 47 4H17C16.2044 4 15.4413 4.31607 14.8787 4.87868C14.3161 5.44129 14 6.20435 14 7V18C14 18.2652 13.8946 18.5196 13.7071 18.7071C13.5196 18.8946 13.2652 19 13 19C12.7348 19 12.4804 18.8946 12.2929 18.7071C12.1054 18.5196 12 18.2652 12 18V7C12.0016 5.67441 12.5289 4.40356 13.4662 3.46622C14.4036 2.52888 15.6744 2.00159 17 2H47C48.3256 2.00159 49.5964 2.52888 50.5338 3.46622C51.4711 4.40356 51.9984 5.67441 52 7V43C52 43.2652 51.8946 43.5196 51.7071 43.7071C51.5196 43.8946 51.2652 44 51 44Z" fill="#F53E02"/>
<path d="M44 25H36C35.2044 25 34.4413 24.6839 33.8787 24.1213C33.3161 23.5587 33 22.7956 33 22V14C33 13.2044 33.3161 12.4413 33.8787 11.8787C34.4413 11.3161 35.2044 11 36 11H44C44.7956 11 45.5587 11.3161 46.1213 11.8787C46.6839 12.4413 47 13.2044 47 14V16C47 16.2652 46.8946 16.5196 46.7071 16.7071C46.5196 16.8946 46.2652 17 46 17C45.7348 17 45.4804 16.8946 45.2929 16.7071C45.1054 16.5196 45 16.2652 45 16V14C45 13.7348 44.8946 13.4804 44.7071 13.2929C44.5196 13.1054 44.2652 13 44 13H36C35.7348 13 35.4804 13.1054 35.2929 13.2929C35.1054 13.4804 35 13.7348 35 14V22C35 22.2652 35.1054 22.5196 35.2929 22.7071C35.4804 22.8946 35.7348 23 36 23H44C44.2652 23 44.5196 22.8946 44.7071 22.7071C44.8946 22.5196 45 22.2652 45 22V20C45 19.7348 45.1054 19.4804 45.2929 19.2929C45.4804 19.1054 45.7348 19 46 19C46.2652 19 46.5196 19.1054 46.7071 19.2929C46.8946 19.4804 47 19.7348 47 20V22C47 22.7956 46.6839 23.5587 46.1213 24.1213C45.5587 24.6839 44.7956 25 44 25Z" fill="#F53E02"/>
<path d="M28 39H20C19.2044 39 18.4413 38.6839 17.8787 38.1213C17.3161 37.5587 17 36.7956 17 36V34C17 33.7348 17.1054 33.4804 17.2929 33.2929C17.4804 33.1054 17.7348 33 18 33C18.2652 33 18.5196 33.1054 18.7071 33.2929C18.8946 33.4804 19 33.7348 19 34V36C19 36.2652 19.1054 36.5196 19.2929 36.7071C19.4804 36.8946 19.7348 37 20 37H28C28.2652 37 28.5196 36.8946 28.7071 36.7071C28.8946 36.5196 29 36.2652 29 36V28C29 27.7348 28.8946 27.4804 28.7071 27.2929C28.5196 27.1054 28.2652 27 28 27H20C19.7348 27 19.4804 27.1054 19.2929 27.2929C19.1054 27.4804 19 27.7348 19 28V30C19 30.2652 18.8946 30.5196 18.7071 30.7071C18.5196 30.8946 18.2652 31 18 31C17.7348 31 17.4804 30.8946 17.2929 30.7071C17.1054 30.5196 17 30.2652 17 30V28C17 27.2044 17.3161 26.4413 17.8787 25.8787C18.4413 25.3161 19.2044 25 20 25H28C28.7956 25 29.5587 25.3161 30.1213 25.8787C30.6839 26.4413 31 27.2044 31 28V36C31 36.7956 30.6839 37.5587 30.1213 38.1213C29.5587 38.6839 28.7956 39 28 39Z" fill="#F53E02"/>
</svg>
