<svg width="16" height="16" viewBox="0 0 16 16" fill="none" xmlns="http://www.w3.org/2000/svg">
<g clip-path="url(#clip0)">
<path d="M1.66666 9C0.748 9 0 8.252 0 7.33334V2C0 1.08134 0.748 0.333344 1.66666 0.333344H3.66666C4.042 0.333344 4.38731 0.46 4.66666 0.670688V9H1.66666Z" fill="#F53E02"/>
<path d="M16.0006 6.49997C16.0006 6.90063 15.842 7.27397 15.5666 7.54931C15.878 7.88997 16.0366 8.34666 15.9933 8.82197C15.9153 9.66931 15.152 10.3333 14.2546 10.3333H10.1366C10.3406 10.9527 10.6673 12.088 10.6673 13C10.6673 14.446 9.43864 15.6666 8.6673 15.6666C7.97464 15.6666 7.47995 15.2766 7.45864 15.2606C7.37998 15.1973 7.33398 15.1013 7.33398 15V12.7393L5.41398 8.57997L5.33398 8.53931V1.39397C5.87664 1.13797 6.5633 0.999969 7.00064 0.999969H13.12C13.846 0.999969 14.4813 1.48931 14.6306 2.16463C14.7073 2.51197 14.6626 2.86197 14.51 3.16597C15.0026 3.41397 15.334 3.92131 15.334 4.49997C15.334 4.73597 15.28 4.96197 15.1773 5.16663C15.67 5.41463 16.0006 5.92197 16.0006 6.49997Z" fill="#F53E02"/>
</g>
<defs>
<clipPath id="clip0">
<rect width="16" height="16" fill="white" transform="matrix(1 0 0 -1 0 16)"/>
</clipPath>
</defs>
</svg>
