<svg width="21" height="25" viewBox="0 0 21 25" fill="none" xmlns="http://www.w3.org/2000/svg">
<ellipse cx="10.5089" cy="6.491" rx="5.57437" ry="5.57437" stroke="#D0D0D0" stroke-width="1.5" stroke-linecap="round" stroke-linejoin="round"/>
<path fill-rule="evenodd" clip-rule="evenodd" d="M1.66701 19.8182C1.66551 19.4264 1.75315 19.0393 1.9233 18.6863C2.45725 17.6184 3.96297 17.0524 5.2124 16.7961C6.11348 16.6038 7.02702 16.4754 7.94619 16.4117C9.64797 16.2622 11.3596 16.2622 13.0614 16.4117C13.9805 16.4761 14.8939 16.6045 15.7952 16.7961C17.0446 17.0524 18.5503 17.565 19.0843 18.6863C19.4264 19.4059 19.4264 20.2413 19.0843 20.9609C18.5503 22.0822 17.0446 22.5947 15.7952 22.8404C14.8951 23.0406 13.9813 23.1727 13.0614 23.2355C11.6763 23.3529 10.2847 23.3743 8.89661 23.2995C8.57624 23.2995 8.26655 23.2995 7.94619 23.2355C7.02973 23.1735 6.11936 23.0414 5.22308 22.8404C3.96297 22.5947 2.46793 22.0822 1.9233 20.9609C1.75402 20.6038 1.66647 20.2134 1.66701 19.8182Z" stroke="#D0D0D0" stroke-width="1.5" stroke-linecap="round" stroke-linejoin="round"/>
</svg>
