<svg width="24" height="24" viewBox="0 0 24 24" fill="none" xmlns="http://www.w3.org/2000/svg">
<path fill-rule="evenodd" clip-rule="evenodd" d="M12.8335 2.0143L15.5355 7.4498C15.6708 7.72397 15.9321 7.9153 16.2355 7.95963L22.2846 8.83347C22.5296 8.86613 22.7501 8.99447 22.9006 9.19047C23.183 9.55797 23.1398 10.0783 22.8015 10.3945L18.4171 14.6341C18.1943 14.8441 18.0951 15.1521 18.1535 15.452L19.2035 21.4346C19.277 21.9305 18.9386 22.3948 18.4428 22.4753C18.2375 22.5068 18.0275 22.4741 17.8408 22.382L12.4531 19.5575C12.1825 19.4105 11.8581 19.4105 11.5875 19.5575L6.16014 22.3971C5.70631 22.6281 5.15098 22.4566 4.90364 22.0121C4.80914 21.8325 4.77648 21.6283 4.80914 21.4288L5.85914 15.4461C5.91164 15.1475 5.81248 14.8406 5.59548 14.6295L1.18781 10.391C0.828476 10.034 0.826142 9.45297 1.18431 9.09363C1.18548 9.09247 1.18664 9.09014 1.18781 9.08897C1.33598 8.9548 1.51798 8.86497 1.71514 8.82997L7.76548 7.95613C8.06764 7.9083 8.32781 7.7193 8.46548 7.44513L11.1651 2.0143C11.2736 1.7938 11.4661 1.62464 11.6995 1.54764C11.934 1.46947 12.1906 1.48814 12.4111 1.59897C12.592 1.6888 12.7401 1.83464 12.8335 2.0143Z" stroke="#D0D0D0" stroke-width="1.5" stroke-linecap="round" stroke-linejoin="round"/>
</svg>
