<svg width="24" height="24" viewBox="0 0 24 24" fill="none" xmlns="http://www.w3.org/2000/svg">
<path d="M1.27148 16.0564C1.27148 16.0564 1.43715 18.0841 1.47565 18.7234C1.52698 19.5809 1.85832 20.5387 2.41132 21.2037C3.19182 22.1464 4.11115 22.4789 5.33848 22.4812C6.78165 22.4836 17.2758 22.4836 18.719 22.4812C19.9463 22.4789 20.8657 22.1464 21.6462 21.2037C22.1992 20.5387 22.5305 19.5809 22.583 18.7234C22.6203 18.0841 22.786 16.0564 22.786 16.0564" stroke="#D0D0D0" stroke-width="1.5" stroke-linecap="round" stroke-linejoin="round"/>
<path d="M7.91211 4.2177V3.78486C7.91211 2.36153 9.06478 1.20886 10.4881 1.20886H13.5004C14.9226 1.20886 16.0764 2.36153 16.0764 3.78486L16.0776 4.2177" stroke="#D0D0D0" stroke-width="1.5" stroke-linecap="round" stroke-linejoin="round"/>
<path d="M11.9935 17.4578V15.9481" stroke="#D0D0D0" stroke-width="1.5" stroke-linecap="round" stroke-linejoin="round"/>
<path fill-rule="evenodd" clip-rule="evenodd" d="M1.20801 7.78727V11.8321C3.44567 13.3079 6.12667 14.3416 9.06901 14.7511C9.42134 13.4666 10.5798 12.5251 11.988 12.5251C13.374 12.5251 14.5558 13.4666 14.8848 14.7628C17.8388 14.3533 20.5303 13.3196 22.7797 11.8321V7.78727C22.7797 5.81094 21.1895 4.2196 19.2132 4.2196H4.78617C2.80984 4.2196 1.20801 5.81094 1.20801 7.78727Z" stroke="#D0D0D0" stroke-width="1.5" stroke-linecap="round" stroke-linejoin="round"/>
</svg>
