<svg width="26" height="20" viewBox="0 0 26 20" fill="none" xmlns="http://www.w3.org/2000/svg">
<path d="M19.5273 8.75384C21.3967 8.75384 22.9132 7.23843 22.9132 5.36904C22.9132 3.49966 21.3967 1.98425 19.5273 1.98425" stroke="#D0D0D0" stroke-width="1.5" stroke-linecap="round" stroke-linejoin="round"/>
<path d="M21.084 12.4321C21.6422 12.4706 22.1973 12.5498 22.7438 12.6728C23.5031 12.8214 24.4164 13.1326 24.7415 13.8139C24.949 14.2502 24.949 14.7582 24.7415 15.1956C24.4174 15.8768 23.5031 16.1869 22.7438 16.3431" stroke="#D0D0D0" stroke-width="1.5" stroke-linecap="round" stroke-linejoin="round"/>
<path d="M6.33801 8.75384C4.46862 8.75384 2.95215 7.23843 2.95215 5.36904C2.95215 3.49966 4.46862 1.98425 6.33801 1.98425" stroke="#D0D0D0" stroke-width="1.5" stroke-linecap="round" stroke-linejoin="round"/>
<path d="M4.78159 12.4321C4.22334 12.4706 3.6683 12.5498 3.12181 12.6728C2.3625 12.8214 1.4492 13.1326 1.12516 13.8139C0.916615 14.2502 0.916615 14.7582 1.12516 15.1956C1.44813 15.8768 2.3625 16.1869 3.12181 16.3431" stroke="#D0D0D0" stroke-width="1.5" stroke-linecap="round" stroke-linejoin="round"/>
<path fill-rule="evenodd" clip-rule="evenodd" d="M12.9274 13.1611C16.7154 13.1611 19.9515 13.7344 19.9515 16.0283C19.9515 18.3212 16.7368 18.9158 12.9274 18.9158C9.13839 18.9158 5.90332 18.3426 5.90332 16.0486C5.90332 13.7547 9.11807 13.1611 12.9274 13.1611Z" stroke="#D0D0D0" stroke-width="1.5" stroke-linecap="round" stroke-linejoin="round"/>
<path fill-rule="evenodd" clip-rule="evenodd" d="M12.9271 9.88903C10.4289 9.88903 8.42578 7.88596 8.42578 5.38667C8.42578 2.88845 10.4289 0.885376 12.9271 0.885376C15.4253 0.885376 17.4284 2.88845 17.4284 5.38667C17.4284 7.88596 15.4253 9.88903 12.9271 9.88903Z" stroke="#D0D0D0" stroke-width="1.5" stroke-linecap="round" stroke-linejoin="round"/>
</svg>
