<svg width="24" height="24" viewBox="0 0 24 24" fill="none" xmlns="http://www.w3.org/2000/svg">
<path fill-rule="evenodd" clip-rule="evenodd" d="M22.7449 7.2164V16.7247C22.7449 20.2481 20.5399 22.7331 17.0166 22.7331H6.92492C3.40159 22.7331 1.20825 20.2481 1.20825 16.7247V7.2164C1.20825 3.69306 3.41325 1.20923 6.92492 1.20923H17.0166C20.5399 1.20923 22.7449 3.69306 22.7449 7.2164Z" stroke="#D0D0D0" stroke-width="1.5" stroke-linecap="round" stroke-linejoin="round"/>
<path d="M4.16138 17.1707L5.94521 15.2889C6.58804 14.6099 7.66721 14.6064 8.31588 15.2795L9.34838 16.333C10.0449 17.0435 11.2034 16.9922 11.8345 16.2234L14.435 13.0605C15.1817 12.1517 16.5514 12.0957 17.3692 12.9392L19.7912 15.4382" stroke="#D0D0D0" stroke-width="1.5" stroke-linecap="round" stroke-linejoin="round"/>
<path fill-rule="evenodd" clip-rule="evenodd" d="M10.0324 8.65656C10.0324 9.7859 9.11542 10.7029 7.98608 10.7029C6.85675 10.7029 5.94092 9.7859 5.94092 8.65656C5.94092 7.52723 6.85675 6.61023 7.98608 6.61023C9.11542 6.61023 10.0324 7.52723 10.0324 8.65656Z" stroke="#D0D0D0" stroke-width="1.5" stroke-linecap="round" stroke-linejoin="round"/>
</svg>
