<svg width="22" height="23" viewBox="0 0 22 23" fill="none" xmlns="http://www.w3.org/2000/svg">
<path d="M21.3556 2.42109H18.5324C18.5427 2.10839 18.5484 1.79385 18.5484 1.47779C18.5484 1.12178 18.2597 0.833252 17.9038 0.833252H4.09633C3.74049 0.833252 3.45179 1.12178 3.45179 1.47779C3.45179 1.79385 3.4575 2.10839 3.46774 2.42109H0.644536C0.288531 2.42109 0 2.70962 0 3.06563C0 5.95362 0.754812 8.6783 2.12529 10.738C3.47999 12.7741 5.28453 13.942 7.23391 14.0556C7.67586 14.5365 8.14298 14.9286 8.62957 15.2277V18.0924H7.54829C6.24109 18.0924 5.17777 19.1559 5.17777 20.4629V21.5442H5.13195C4.77595 21.5442 4.48742 21.8329 4.48742 22.1887C4.48742 22.5447 4.77595 22.8333 5.13195 22.8333H16.8682C17.2242 22.8333 17.5128 22.5447 17.5128 22.1887C17.5128 21.8329 17.2242 21.5442 16.8682 21.5442H16.8224V20.4629C16.8224 19.1559 15.7591 18.0924 14.4519 18.0924H13.3706V15.2277C13.8572 14.9288 14.3245 14.5365 14.7664 14.0556C16.7156 13.942 18.5202 12.7741 19.875 10.738C21.2455 8.6783 22.0002 5.95362 22.0002 3.06563C22.0002 2.70962 21.7116 2.42109 21.3556 2.42109ZM3.19851 10.0239C2.06805 8.32515 1.40388 6.10317 1.30267 3.71017H3.53975C3.77222 6.65187 4.46274 9.37101 5.542 11.5294C5.71388 11.8731 5.89365 12.1979 6.08012 12.5037C5.00808 12.0989 4.01593 11.2526 3.19851 10.0239ZM15.5333 20.4629V21.5443H6.46685V20.4629C6.46685 19.8667 6.95193 19.3815 7.54829 19.3815H14.4519C15.0482 19.3815 15.5333 19.8667 15.5333 20.4629ZM12.0815 18.0924H9.91864V15.7878C10.273 15.8812 10.634 15.9297 11.0001 15.9297C11.3662 15.9297 11.7272 15.8812 12.0815 15.7878V18.0924ZM12.4807 14.2544C12.4516 14.2663 12.4238 14.2807 12.3971 14.2967C11.9415 14.5233 11.4734 14.6406 11.0001 14.6406C10.5269 14.6406 10.059 14.5233 9.60359 14.297C9.57657 14.2807 9.54853 14.2663 9.51916 14.254C9.01377 13.9868 8.52483 13.5833 8.06241 13.0531C8.03807 13.0183 8.01071 12.9863 7.98033 12.9571C7.52127 12.4121 7.08939 11.7417 6.69495 10.9528C5.51045 8.58397 4.8263 5.46921 4.74842 2.12232H17.2517C17.1737 5.46921 16.4896 8.58414 15.3052 10.9528C14.9108 11.7417 14.4789 12.4121 14.02 12.9571C13.9895 12.9863 13.9618 13.0185 13.9376 13.0533C13.4752 13.5837 12.9861 13.987 12.4807 14.2544ZM18.8017 10.0239C17.9842 11.2526 16.9921 12.0989 15.92 12.5037C16.1065 12.1979 16.2863 11.8731 16.4582 11.5294C17.5374 9.37101 18.2278 6.65187 18.4604 3.71017H20.6975C20.5963 6.10317 19.9321 8.32515 18.8017 10.0239Z" fill="#D0D0D0"/>
</svg>
