<svg width="16" height="16" viewBox="0 0 16 16" fill="none" xmlns="http://www.w3.org/2000/svg">
<g clip-path="url(#clip0)">
<path d="M1.66666 7C0.748 7 0 7.748 0 8.66666V14C0 14.9187 0.748 15.6667 1.66666 15.6667H3.66666C4.042 15.6667 4.38731 15.54 4.66666 15.3293V7H1.66666Z" fill="#08C052"/>
<path d="M16.0006 9.50003C16.0006 9.09937 15.842 8.72603 15.5666 8.45069C15.878 8.11003 16.0366 7.65334 15.9933 7.17803C15.9153 6.33069 15.152 5.66669 14.2546 5.66669H10.1366C10.3406 5.04734 10.6673 3.91203 10.6673 3.00003C10.6673 1.55403 9.43864 0.333374 8.6673 0.333374C7.97464 0.333374 7.47995 0.723374 7.45864 0.739374C7.37998 0.802718 7.33398 0.898718 7.33398 1.00003V3.26069L5.41398 7.42003L5.33398 7.46069V14.606C5.87664 14.862 6.5633 15 7.00064 15H13.12C13.846 15 14.4813 14.5107 14.6306 13.8354C14.7073 13.488 14.6626 13.138 14.51 12.834C15.0026 12.586 15.334 12.0787 15.334 11.5C15.334 11.264 15.28 11.038 15.1773 10.8334C15.67 10.5854 16.0006 10.078 16.0006 9.50003Z" fill="#08C052"/>
</g>
<defs>
<clipPath id="clip0">
<rect width="16" height="16" fill="white"/>
</clipPath>
</defs>
</svg>
