<svg width="20" height="20" viewBox="0 0 20 20" fill="none" xmlns="http://www.w3.org/2000/svg">
<g clip-path="url(#clip0)">
<path d="M19.0908 10.9092C18.8181 10.9092 18.6363 11.091 18.6363 11.3637V17.2728C18.6363 17.5455 18.4544 17.7273 18.1817 17.7273H1.81806C1.54533 17.7273 1.36353 17.5455 1.36353 17.2728V11.3637C1.36353 11.091 1.18169 10.9092 0.908999 10.9092C0.636304 10.9092 0.454468 11.091 0.454468 11.3637V17.2728C0.454468 18.0455 1.04537 18.6364 1.8181 18.6364H18.1817C18.9545 18.6364 19.5454 18.0455 19.5454 17.2728V11.3637C19.5454 11.091 19.3635 10.9092 19.0908 10.9092Z" fill="white" stroke="white"/>
<path d="M18.6362 4.54541H1.36351C0.590776 4.54541 -0.00012207 5.13631 -0.00012207 5.90904V8.81814C-0.00012207 9.45447 0.454409 9.99994 1.04535 10.1363L8.18171 11.7272V13.1817C8.18171 13.4545 8.36355 13.6363 8.63625 13.6363H11.3635C11.6362 13.6363 11.818 13.4544 11.818 13.1817V11.7272L18.9544 10.1363C19.5453 9.99994 19.9999 9.45447 19.9999 8.8181V5.909C19.9999 5.13631 19.409 4.54541 18.6362 4.54541ZM10.909 12.7272H9.09082V10.909H10.909V12.7272ZM19.0908 8.8181C19.0908 9.04537 18.9544 9.22721 18.7271 9.27264L11.818 10.8181V10.4545C11.818 10.1817 11.6362 9.99994 11.3635 9.99994H8.63625C8.36351 9.99994 8.18171 10.1818 8.18171 10.4545V10.8181L1.27261 9.27268C1.04535 9.22721 0.90898 9.04541 0.90898 8.81814V5.90904C0.90898 5.63631 1.09082 5.45451 1.36351 5.45451H18.6362C18.909 5.45451 19.0908 5.63635 19.0908 5.90904V8.8181Z" fill="white" stroke="white"/>
<path d="M12.2726 1.36353H7.72716C6.95442 1.36353 6.36353 1.95442 6.36353 2.72716V3.18169C6.36353 3.45442 6.54536 3.63622 6.81806 3.63622C7.09075 3.63622 7.27259 3.45438 7.27259 3.18169V2.72716C7.27259 2.45442 7.45442 2.27263 7.72712 2.27263H12.2726C12.5453 2.27263 12.7271 2.45446 12.7271 2.72716V3.18169C12.7271 3.45442 12.909 3.63622 13.1817 3.63622C13.4544 3.63622 13.6362 3.45438 13.6362 3.18169V2.72716C13.6363 1.95442 13.0454 1.36353 12.2726 1.36353Z" fill="white" stroke="white"/>
</g>
<defs>
<clipPath id="clip0">
<rect width="20" height="20" fill="white" transform="translate(-0.00012207)"/>
</clipPath>
</defs>
</svg>
