<svg width="20" height="20" viewBox="0 0 20 20" fill="none" xmlns="http://www.w3.org/2000/svg">
<g clip-path="url(#clip0)">
<path d="M17.4455 4.85906L12.7581 0.17168C12.6487 0.0622266 12.4994 0 12.3438 0H4.14062C3.17137 0 2.38281 0.788555 2.38281 1.75781V18.2422C2.38281 19.2114 3.17137 20 4.14062 20H15.8594C16.8286 20 17.6172 19.2114 17.6172 18.2422V5.27344C17.6172 5.11367 17.5501 4.96363 17.4455 4.85906ZM12.9297 2.00051L15.6167 4.6875H13.5156C13.1925 4.6875 12.9297 4.42465 12.9297 4.10156V2.00051ZM15.8594 18.8281H4.14062C3.81754 18.8281 3.55469 18.5653 3.55469 18.2422V1.75781C3.55469 1.43473 3.81754 1.17188 4.14062 1.17188H11.7578V4.10156C11.7578 5.07082 12.5464 5.85938 13.5156 5.85938H16.4453V18.2422C16.4453 18.5653 16.1825 18.8281 15.8594 18.8281Z" fill="white" stroke="white"/>
</g>
<defs>
<clipPath id="clip0">
<rect width="20" height="20" fill="white"/>
</clipPath>
</defs>
</svg>
