<svg width="28" height="29" viewBox="0 0 28 29" fill="none" xmlns="http://www.w3.org/2000/svg">
<ellipse cx="13.5089" cy="8.56674" rx="5.57437" ry="5.57437" stroke="white" stroke-width="1.5" stroke-linecap="round" stroke-linejoin="round"/>
<path fill-rule="evenodd" clip-rule="evenodd" d="M4.66677 21.894C4.66527 21.5021 4.75291 21.115 4.92306 20.762C5.457 19.6941 6.96272 19.1282 8.21215 18.8719C9.11324 18.6796 10.0268 18.5511 10.9459 18.4874C12.6477 18.3379 14.3593 18.3379 16.0611 18.4874C16.9802 18.5518 17.8937 18.6803 18.7949 18.8719C20.0443 19.1282 21.5501 19.6407 22.084 20.762C22.4262 21.4816 22.4262 22.317 22.084 23.0366C21.5501 24.1579 20.0443 24.6705 18.7949 24.9161C17.8949 25.1164 16.981 25.2484 16.0611 25.3112C14.676 25.4286 13.2844 25.45 11.8964 25.3753C11.576 25.3753 11.2663 25.3753 10.9459 25.3112C10.0295 25.2492 9.11912 25.1171 8.22283 24.9161C6.96272 24.6705 5.46768 24.1579 4.92306 23.0366C4.75378 22.6795 4.66623 22.2892 4.66677 21.894Z" stroke="white" stroke-width="1.5" stroke-linecap="round" stroke-linejoin="round"/>
</svg>
