<svg width="28" height="28" viewBox="0 0 28 28" fill="none" xmlns="http://www.w3.org/2000/svg">
<path fill-rule="evenodd" clip-rule="evenodd" d="M8.97759 15.6226C8.22537 15.6226 7.61426 15.0115 7.61426 14.2593C7.61426 13.5093 8.22537 12.8982 8.97759 12.8982C9.72981 12.8982 10.3409 13.5093 10.3409 14.2593C10.3409 15.0115 9.72981 15.6226 8.97759 15.6226ZM14.2776 15.6226C13.5254 15.6226 12.9143 15.0115 12.9143 14.2593C12.9143 13.5093 13.5254 12.8982 14.2776 12.8982C15.0298 12.8982 15.6409 13.5093 15.6409 14.2593C15.6409 15.0115 15.0298 15.6226 14.2776 15.6226ZM18.2143 14.2593C18.2143 15.0115 18.8255 15.6226 19.5777 15.6226C20.3299 15.6226 20.941 15.0115 20.941 14.2593C20.941 13.5093 20.3299 12.8982 19.5777 12.8982C18.8255 12.8982 18.2143 13.5093 18.2143 14.2593Z" fill="#D0D0D0"/>
<path fill-rule="evenodd" clip-rule="evenodd" d="M14.0233 2.33331C7.24492 2.33331 2.33325 7.87045 2.33325 14.0175C2.33325 15.9805 2.90492 18.0006 3.90825 19.8468C4.09492 20.1517 4.11825 20.5361 3.98992 20.8995L3.20825 23.5168C3.03325 24.1477 3.56992 24.6139 4.16492 24.427L6.52159 23.7271C7.16325 23.5168 7.66492 23.7843 8.25992 24.1477C9.96325 25.1514 12.0866 25.6666 13.9999 25.6666C19.7866 25.6666 25.6666 21.1916 25.6666 13.9825C25.6666 7.7653 20.6499 2.33331 14.0233 2.33331Z" stroke="#D0D0D0" stroke-width="1.5" stroke-linecap="round" stroke-linejoin="round"/>
</svg>
