<svg width="28" height="29" viewBox="0 0 28 29" fill="none" xmlns="http://www.w3.org/2000/svg">
<g clip-path="url(#clip0)">
<path d="M13.4167 28.4089H26.25C27.2148 28.4089 28 27.6238 28 26.6589V25.4923C28 24.5274 27.2148 23.7422 26.25 23.7422H13.4167C12.4518 23.7422 11.6667 24.5274 11.6667 25.4923V26.6589C11.6667 27.6238 12.4518 28.4089 13.4167 28.4089ZM26.25 24.9089C26.572 24.9089 26.8333 25.1714 26.8333 25.4923V26.6589C26.8333 26.9798 26.572 27.2423 26.25 27.2423H13.4167C13.0947 27.2423 12.8333 26.9798 12.8333 26.6589V25.4923C12.8333 25.1714 13.0947 24.9089 13.4167 24.9089H26.25Z" fill="#D0D0D0"/>
<path d="M15.5247 15.1416C15.7965 15.1416 16.0567 15.0622 16.2713 14.8476L20.3663 10.7526C21.0827 10.0362 20.2952 8.79723 20.0373 8.39123C19.5532 7.63056 18.7995 6.7229 17.9128 5.83623C17.025 4.94723 16.1162 4.19123 15.3555 3.70706C14.9472 3.4469 13.707 2.6594 12.9907 3.37573L8.89567 7.47073C8.17817 8.18823 8.968 9.42956 9.227 9.83673C9.71234 10.5986 10.4683 11.5074 11.3573 12.3952C12.244 13.2819 13.1517 14.0356 13.9112 14.5186C14.1947 14.7006 14.8888 15.1416 15.5247 15.1416ZM13.8143 4.20056C14.0185 4.20873 15.2983 4.87256 17.0833 6.6564C18.8683 8.4414 19.5333 9.7224 19.4913 10.0117L15.4453 14.0227C15.24 14.0146 13.9602 13.3507 12.174 11.5657C10.4567 9.84723 9.77767 8.59773 9.766 8.24773L13.8143 4.20056Z" fill="#D0D0D0"/>
<path d="M17.4964 17.8144C17.9421 17.8144 18.3889 17.644 18.7284 17.3045L22.8234 13.2095C23.1524 12.8817 23.3333 12.4442 23.3333 11.9787C23.3333 11.5132 23.1524 11.0757 22.8223 10.7467L22.0033 9.92771C21.3243 9.24871 20.2194 9.24871 19.5404 9.92771L15.4454 14.0227C14.7664 14.7017 14.7664 15.8065 15.4454 16.4855L16.2644 17.3045C16.6051 17.644 17.0508 17.8144 17.4964 17.8144ZM20.7724 10.5845C20.9194 10.5845 21.0664 10.6417 21.1796 10.7537L21.9974 11.5715C22.1071 11.6812 22.1666 11.8247 22.1666 11.9787C22.1666 12.1327 22.1071 12.2762 21.9974 12.3859L17.9024 16.4809C17.6773 16.7049 17.3133 16.7037 17.0893 16.4809L16.2703 15.6619C16.0463 15.4379 16.0463 15.0727 16.2703 14.8487L20.3653 10.7537C20.4784 10.6417 20.6254 10.5845 20.7724 10.5845Z" fill="#D0D0D0"/>
<path d="M8.48724 8.80424C8.9329 8.80424 9.37974 8.6339 9.71924 8.2944L13.8142 4.1994C14.4932 3.5204 14.4932 2.41674 13.8142 1.73774L12.9952 0.918735C12.3162 0.239735 11.2114 0.239735 10.5324 0.918735L6.4374 5.01374C5.7584 5.69274 5.7584 6.79757 6.4374 7.47657L7.2564 8.29557C7.5959 8.63507 8.04157 8.80424 8.48724 8.80424ZM11.7632 1.57674C11.9102 1.57674 12.0572 1.63274 12.1704 1.74474L12.9894 2.56374C13.2134 2.78773 13.2134 3.15174 12.9894 3.37574L8.8944 7.47074C8.6704 7.69357 8.30524 7.69357 8.08124 7.47074L7.26224 6.6529C7.03824 6.4289 7.03824 6.06374 7.26224 5.83974L11.3572 1.74474C11.4692 1.63274 11.6162 1.57674 11.7632 1.57674ZM6.8504 7.06473H6.83874H6.8504Z" fill="#D0D0D0"/>
<path d="M2.22008 23.7458C2.92358 23.7458 3.68074 23.3433 4.48574 22.5383C5.29074 21.7333 10.0239 16.5241 12.9616 13.0603C13.1704 12.8153 13.1401 12.4466 12.8939 12.2389C12.6489 12.0301 12.2802 12.0593 12.0714 12.3066C9.00774 15.9186 4.35624 21.0181 3.66091 21.7134C2.34724 23.0294 1.83508 22.5173 1.52941 22.2139C1.38941 22.0739 1.19691 21.8826 1.17008 21.6084C1.13041 21.2106 1.42791 20.6833 2.02874 20.0813C2.71824 19.3906 7.80958 14.7461 11.4356 11.6684C11.6817 11.4596 11.7121 11.0921 11.5032 10.8471C11.2932 10.5986 10.9257 10.5718 10.6807 10.7794C7.20291 13.7299 1.99958 18.4573 1.20158 19.2564C0.33241 20.1256 -0.0700903 20.9563 0.00690937 21.7239C0.0757427 22.4111 0.499242 22.8346 0.702241 23.0376C1.17591 23.5101 1.68224 23.7458 2.22008 23.7458Z" fill="#D0D0D0"/>
</g>
<defs>
<clipPath id="clip0">
<rect width="28" height="28" fill="white" transform="matrix(-1 0 0 1 28 0.408936)"/>
</clipPath>
</defs>
</svg>
