<svg width="28" height="29" viewBox="0 0 28 29" fill="none" xmlns="http://www.w3.org/2000/svg">
<path fill-rule="evenodd" clip-rule="evenodd" d="M24.7449 9.29214V18.8005C24.7449 22.3238 22.5399 24.8088 19.0166 24.8088H8.92492C5.40159 24.8088 3.20825 22.3238 3.20825 18.8005V9.29214C3.20825 5.76881 5.41325 3.28497 8.92492 3.28497H19.0166C22.5399 3.28497 24.7449 5.76881 24.7449 9.29214Z" stroke="#D0D0D0" stroke-width="1.5" stroke-linecap="round" stroke-linejoin="round"/>
<path d="M6.16138 19.2465L7.94521 17.3647C8.58804 16.6857 9.66721 16.6822 10.3159 17.3553L11.3484 18.4088C12.0449 19.1193 13.2034 19.068 13.8345 18.2992L16.435 15.1363C17.1817 14.2275 18.5514 14.1715 19.3692 15.015L21.7912 17.514" stroke="#D0D0D0" stroke-width="1.5" stroke-linecap="round" stroke-linejoin="round"/>
<path fill-rule="evenodd" clip-rule="evenodd" d="M12.0324 10.7322C12.0324 11.8616 11.1154 12.7786 9.98608 12.7786C8.85675 12.7786 7.94092 11.8616 7.94092 10.7322C7.94092 9.60291 8.85675 8.68591 9.98608 8.68591C11.1154 8.68591 12.0324 9.60291 12.0324 10.7322Z" stroke="#D0D0D0" stroke-width="1.5" stroke-linecap="round" stroke-linejoin="round"/>
</svg>
