<svg width="28" height="29" viewBox="0 0 28 29" fill="none" xmlns="http://www.w3.org/2000/svg">
<path fill-rule="evenodd" clip-rule="evenodd" d="M14.8332 4.75661L17.5352 10.1921C17.6706 10.4663 17.9319 10.6576 18.2352 10.7019L24.2844 11.5758C24.5294 11.6084 24.7499 11.7368 24.9004 11.9328C25.1827 12.3003 25.1396 12.8206 24.8012 13.1368L20.4169 17.3764C20.1941 17.5864 20.0949 17.8944 20.1532 18.1943L21.2032 24.1769C21.2767 24.6728 20.9384 25.1371 20.4426 25.2176C20.2372 25.2491 20.0272 25.2164 19.8406 25.1243L14.4529 22.2998C14.1822 22.1528 13.8579 22.1528 13.5872 22.2998L8.1599 25.1394C7.70606 25.3704 7.15073 25.1989 6.9034 24.7544C6.8089 24.5748 6.77623 24.3706 6.8089 24.1711L7.8589 18.1884C7.9114 17.8898 7.81223 17.5829 7.59523 17.3718L3.18756 13.1333C2.82823 12.7763 2.8259 12.1953 3.18406 11.8359C3.18523 11.8348 3.1864 11.8324 3.18756 11.8313C3.33573 11.6971 3.51773 11.6073 3.7149 11.5723L9.76523 10.6984C10.0674 10.6506 10.3276 10.4616 10.4652 10.1874L13.1649 4.75661C13.2734 4.53611 13.4659 4.36694 13.6992 4.28994C13.9337 4.21178 14.1904 4.23044 14.4109 4.34128C14.5917 4.43111 14.7399 4.57694 14.8332 4.75661Z" stroke="#D0D0D0" stroke-width="1.5" stroke-linecap="round" stroke-linejoin="round"/>
</svg>
