<svg width="28" height="29" viewBox="0 0 28 29" fill="none" xmlns="http://www.w3.org/2000/svg">
<path d="M6.76471 11.7423H1.82354C1.36871 11.7423 1 12.111 1 12.5658V24.9187C1 25.3736 1.36871 25.7423 1.82354 25.7423H6.76471C7.21955 25.7423 7.58825 25.3736 7.58825 24.9187V12.5658C7.5882 12.111 7.2195 11.7423 6.76471 11.7423ZM5.94116 24.0952H2.64704V13.3894H5.94116V24.0952Z" fill="#D0D0D0"/>
<path d="M16.5 3.74231H11.7857C11.3518 3.74231 11 4.09409 11 4.52804V24.9566C11 25.3905 11.3518 25.7423 11.7857 25.7423H16.5C16.934 25.7423 17.2858 25.3905 17.2858 24.9566V4.52804C17.2858 4.09409 16.934 3.74231 16.5 3.74231ZM15.7143 24.1709H12.5715V5.31372H15.7143V24.1709Z" fill="#D0D0D0"/>
<path d="M26.6 9.74231H21.8C21.3582 9.74231 21 10.1005 21 10.5423V24.9423C21 25.3841 21.3582 25.7423 21.8 25.7423H26.6C27.0418 25.7423 27.4 25.3841 27.4 24.9423V10.5423C27.4 10.1005 27.0418 9.74231 26.6 9.74231ZM25.8 24.1423H22.6V11.3423H25.8V24.1423Z" fill="#D0D0D0"/>
</svg>
