<svg width="16" height="17" viewBox="0 0 16 17" fill="none" xmlns="http://www.w3.org/2000/svg">
<path fill-rule="evenodd" clip-rule="evenodd" d="M7.22433 8.2794L7.22535 8.51264C7.23345 9.43777 7.2899 10.2632 7.38724 10.7862C7.38724 10.7957 7.49342 11.3145 7.56105 11.4871C7.66723 11.7367 7.85923 11.9486 8.09996 12.0828C8.29268 12.1786 8.49486 12.2272 8.7065 12.2272C8.87286 12.2196 9.14722 12.1369 9.34303 12.0675L9.50576 12.0059C10.5836 11.5829 12.6439 10.2007 13.433 9.35542L13.4912 9.29634L13.7508 9.01948C13.9144 8.80762 14.001 8.54859 14.001 8.26997C14.001 8.02037 13.9239 7.77078 13.7697 7.56907C13.7235 7.50372 13.6492 7.41988 13.583 7.34905L13.3303 7.08768C12.4607 6.2171 10.5777 4.99595 9.60176 4.59134C9.60176 4.58263 8.99522 4.33231 8.7065 4.32288H8.66795C8.22505 4.32288 7.81123 4.57247 7.5996 4.97589C7.54178 5.08617 7.48633 5.30221 7.44415 5.49195L7.36833 5.8502C7.28179 6.4263 7.22433 7.31004 7.22433 8.2794ZM3.00315 7.27493C2.4497 7.27493 2.00098 7.7226 2.00098 8.27476C2.00098 8.82692 2.4497 9.27459 3.00315 9.27459L5.4693 9.0591C5.90347 9.0591 6.25547 8.70865 6.25547 8.27476C6.25547 7.84159 5.90347 7.49042 5.4693 7.49042L3.00315 7.27493Z" fill="white"/>
</svg>
