<svg width="16" height="17" viewBox="0 0 16 17" fill="none" xmlns="http://www.w3.org/2000/svg">
<path fill-rule="evenodd" clip-rule="evenodd" d="M8.77762 8.2794L8.77661 8.51264C8.7685 9.43777 8.71206 10.2632 8.61471 10.7862C8.61471 10.7957 8.50853 11.3145 8.4409 11.4871C8.33472 11.7367 8.14272 11.9486 7.902 12.0828C7.70927 12.1786 7.50709 12.2272 7.29546 12.2272C7.1291 12.2196 6.85474 12.1369 6.65892 12.0675L6.49619 12.0059C5.41839 11.5829 3.35805 10.2007 2.56897 9.35542L2.51079 9.29634L2.25115 9.01948C2.08752 8.80762 2.00098 8.54859 2.00098 8.26997C2.00098 8.02037 2.07807 7.77078 2.23225 7.56907C2.2784 7.50372 2.35275 7.41988 2.41893 7.34905L2.67164 7.08768C3.54128 6.2171 5.42421 4.99595 6.4002 4.59134C6.4002 4.58263 7.00673 4.33231 7.29546 4.32288H7.334C7.77691 4.32288 8.19072 4.57247 8.40235 4.97589C8.46017 5.08617 8.51562 5.30221 8.55781 5.49195L8.63362 5.8502C8.72017 6.4263 8.77762 7.31004 8.77762 8.2794ZM12.9988 7.27493C13.5523 7.27493 14.001 7.7226 14.001 8.27476C14.001 8.82692 13.5523 9.27459 12.9988 9.27459L10.5327 9.0591C10.0985 9.0591 9.74648 8.70865 9.74648 8.27476C9.74648 7.84159 10.0985 7.49042 10.5327 7.49042L12.9988 7.27493Z" fill="white"/>
</svg>
