<svg width="55" height="55" viewBox="0 0 55 55" fill="none" xmlns="http://www.w3.org/2000/svg">
<circle cx="27.5" cy="27.5" r="27.5" fill="#F59124"/>
<path d="M36.5486 19.4668C34.3909 17.4889 31.7836 16.5 28.5471 16.5C25.2207 16.5 22.3437 17.5788 20.0062 19.8264C17.6687 22.074 16.5 24.8611 16.5 28.1875C16.5 31.424 17.5789 34.1212 19.8265 36.4587C22.074 38.7962 25.0409 39.875 28.9067 39.875C31.1543 39.875 33.4019 39.4255 35.6495 38.4365C36.3688 38.1668 36.7284 37.2678 36.4587 36.5486C36.189 35.8293 35.2899 35.4697 34.5707 35.7394C32.6827 36.5486 30.7947 36.9981 28.9966 36.9981C26.1197 36.9981 23.8721 36.099 22.2538 34.301C20.6356 32.5029 19.8265 30.4351 19.8265 28.0976C19.8265 25.4904 20.7255 23.3327 22.3438 21.6245C24.0519 19.9163 26.1197 19.0173 28.637 19.0173C30.8846 19.0173 32.8625 19.7365 34.4808 21.175C36.099 22.6135 36.8183 24.4115 36.8183 26.5692C36.8183 28.0077 36.4586 29.2663 35.7394 30.2553C35.0202 31.2442 34.301 31.6938 33.4918 31.6938C33.0423 31.6938 32.8625 31.5139 32.8625 30.9745C32.8625 30.6149 32.8625 30.1654 32.9524 29.7159L33.8515 22.4337H30.7947L30.6149 23.1529C29.8058 22.5236 28.9966 22.1639 28.0976 22.1639C26.6591 22.1639 25.4005 22.7933 24.3216 23.962C23.2428 25.1308 22.7933 26.6591 22.7933 28.4572C22.7933 30.2553 23.2428 31.6937 24.2317 32.8625C25.1308 33.9413 26.2995 34.4808 27.5582 34.4808C28.7269 34.4808 29.7159 34.0312 30.525 33.0423C31.1543 33.9413 32.0534 34.4808 33.312 34.4808C35.1101 34.4808 36.6385 33.6716 37.987 32.1433C39.3356 30.6149 39.9649 28.7269 39.9649 26.4793C39.6952 23.7822 38.6164 21.3548 36.5486 19.4668ZM29.4461 30.4351C28.9067 31.1543 28.2774 31.5139 27.4683 31.5139C26.9289 31.5139 26.5692 31.2442 26.2096 30.7048C25.85 30.1654 25.7601 29.5361 25.7601 28.7269C25.7601 27.738 25.9399 26.9288 26.3894 26.3894C26.8389 25.7601 27.3784 25.4904 28.0077 25.4904C28.5471 25.4904 29.0865 25.6702 29.5361 26.2096C29.9856 26.6591 30.1654 27.2885 30.1654 28.0077C30.2553 28.9067 29.9856 29.7159 29.4461 30.4351Z" fill="white"/>
</svg>
