<svg width="16" height="16" viewBox="0 0 16 16" fill="none" xmlns="http://www.w3.org/2000/svg">
<g clip-path="url(#clip0)">
<ellipse cx="7.69368" cy="4.20223" rx="3.47493" ry="3.47493" stroke="#CACACA" stroke-width="1.5" stroke-linecap="round" stroke-linejoin="round"/>
<path fill-rule="evenodd" clip-rule="evenodd" d="M2.18165 12.5101C2.18072 12.2658 2.23535 12.0245 2.34142 11.8045C2.67427 11.1388 3.6129 10.786 4.39176 10.6262C4.95348 10.5063 5.52295 10.4262 6.09594 10.3865C7.1568 10.2934 8.22378 10.2934 9.28463 10.3865C9.85757 10.4267 10.427 10.5068 10.9888 10.6262C11.7677 10.786 12.7063 11.1055 13.0392 11.8045C13.2525 12.2531 13.2525 12.7738 13.0392 13.2224C12.7063 13.9214 11.7677 14.2409 10.9888 14.394C10.4277 14.5189 9.85807 14.6012 9.28463 14.6403C8.42118 14.7135 7.5537 14.7269 6.68841 14.6803C6.4887 14.6803 6.29565 14.6803 6.09594 14.6403C5.52465 14.6017 4.95715 14.5193 4.39842 14.394C3.6129 14.2409 2.68092 13.9214 2.34142 13.2224C2.23589 12.9998 2.18131 12.7565 2.18165 12.5101Z" stroke="#CACACA" stroke-width="1.5" stroke-linecap="round" stroke-linejoin="round"/>
</g>
<defs>
<clipPath id="clip0">
<rect width="16" height="16" fill="white"/>
</clipPath>
</defs>
</svg>
