<svg width="17" height="20" viewBox="0 0 17 20" fill="none" xmlns="http://www.w3.org/2000/svg">
<path fill-rule="evenodd" clip-rule="evenodd" d="M1.3708 11.4123V11.2299C1.39757 10.6903 1.57054 10.1675 1.87188 9.71543C2.37347 9.17233 2.71684 8.50679 2.86595 7.78864C2.86595 7.2336 2.86595 6.67063 2.91444 6.11558C3.16498 3.44345 5.80775 1.59595 8.4182 1.59595H8.48286C11.0933 1.59595 13.7361 3.44345 13.9947 6.11558C14.0432 6.67063 13.9947 7.2336 14.0351 7.78864C14.1862 8.50845 14.5292 9.17606 15.0292 9.72336C15.3328 10.1715 15.506 10.6924 15.5303 11.2299V11.4043C15.5483 12.1293 15.2986 12.8361 14.8271 13.3946C14.2042 14.0476 13.3588 14.4538 12.4511 14.5364C9.78927 14.8218 7.1037 14.8218 4.44192 14.5364C3.53521 14.4502 2.69106 14.0446 2.06585 13.3946C1.60169 12.8357 1.35532 12.133 1.3708 11.4123Z" stroke="white" stroke-width="1.5" stroke-linecap="round" stroke-linejoin="round"/>
<path d="M6.41382 17.2957C6.82972 17.8175 7.44046 18.1553 8.11089 18.2342C8.78132 18.313 9.45614 18.1265 9.98601 17.7159C10.149 17.5945 10.2956 17.4532 10.4224 17.2957" stroke="white" stroke-width="1.5" stroke-linecap="round" stroke-linejoin="round"/>
</svg>
