<svg width="104" height="104" viewBox="0 0 104 104" fill="none" xmlns="http://www.w3.org/2000/svg">
<g clip-path="url(#clip0)">
<path d="M99.6581 0H96.6738C94.7512 0 93.18 1.5149 93.0803 3.4129H10.92C10.8203 1.5149 9.24912 0 7.32655 0H4.34224C2.35528 0 0.739014 1.61647 0.739014 3.60302V14.8041C0.739014 16.7909 2.35528 18.4072 4.34204 18.4072H7.32634C7.51586 18.4072 7.7007 18.3881 7.8825 18.3596V79.8637C7.8825 82.4253 9.96656 84.5092 12.528 84.5092H33.0509L28.9841 102.134C28.7948 102.953 29.306 103.771 30.1259 103.961C30.241 103.987 30.3564 104 30.4698 104C31.1632 104 31.7903 103.523 31.9528 102.819L36.1776 84.5092H42.7704L38.7036 102.133C38.5143 102.953 39.0256 103.771 39.8454 103.961C39.9605 103.987 40.0759 104 40.1893 104C40.8827 104 41.5098 103.523 41.6723 102.819L45.8973 84.5092H58.1022L62.3272 102.819C62.4897 103.523 63.1167 104 63.8102 104C63.9238 104 64.0389 103.987 64.1541 103.961C64.9739 103.771 65.4852 102.953 65.2959 102.133L61.2291 84.5092H67.8219L72.0467 102.819C72.2092 103.523 72.8363 104 73.5297 104C73.6433 104 73.7584 103.987 73.8736 103.961C74.6934 103.771 75.2047 102.953 75.0154 102.134L70.9486 84.5092H91.4715C94.0329 84.5092 96.117 82.4253 96.117 79.8637V23.3742C96.117 22.5328 95.4351 21.8507 94.5935 21.8507C93.752 21.8507 93.0701 22.5328 93.0701 23.3742V79.8639C93.0701 80.7455 92.3531 81.4625 91.4715 81.4625H12.5282C11.6466 81.4625 10.9296 80.7455 10.9296 79.8639V15.7133H93.1912C93.5956 17.2605 95.0012 18.4074 96.6735 18.4074H99.6578C101.645 18.4074 103.261 16.7909 103.261 14.8043V3.60302C103.261 1.61647 101.645 0 99.6581 0V0ZM7.32655 15.3605H4.34224C4.03552 15.3605 3.78609 15.1108 3.78609 14.8043V3.60302C3.78609 3.29631 4.03573 3.04687 4.34224 3.04687H7.32655C7.63327 3.04687 7.8827 3.29651 7.8827 3.60302V14.8041C7.8827 15.1108 7.63327 15.3605 7.32655 15.3605ZM10.9296 6.45977H93.0705V12.6664H10.9296V6.45977ZM100.214 14.8041C100.214 15.1108 99.9646 15.3603 99.6581 15.3603H96.6738C96.367 15.3603 96.1176 15.1106 96.1176 14.8041V3.60302C96.1176 3.29631 96.3672 3.04687 96.6738 3.04687H99.6581C99.9648 3.04687 100.214 3.29651 100.214 3.60302V14.8041Z" fill="#ED3129"/>
<path d="M17.7578 73.4348C17.7578 75.7143 19.6123 77.5688 21.8918 77.5688H37.684C39.9634 77.5688 41.818 75.7143 41.818 73.4348V43.6821C41.818 41.4026 39.9634 39.5481 37.684 39.5481H21.8918C19.6123 39.5481 17.7578 41.4026 17.7578 43.6821V73.4348ZM20.8047 43.6821C20.8047 43.0827 21.2922 42.595 21.8918 42.595H37.684C38.2834 42.595 38.7711 43.0827 38.7711 43.6821V73.4348C38.7711 74.0343 38.2836 74.522 37.684 74.522H31.2337C31.2835 74.3714 31.3113 74.211 31.3113 74.0438V71.6063C31.3113 70.765 30.6294 70.0829 29.7879 70.0829C28.9463 70.0829 28.2645 70.765 28.2645 71.6063V74.0438C28.2645 74.211 28.2923 74.3714 28.342 74.522H21.8918C21.2924 74.522 20.8047 74.0343 20.8047 73.4348V43.6821Z" fill="#ED3129"/>
<path d="M29.7876 65.4109C30.6291 65.4109 31.311 64.7288 31.311 63.8875V61.45C31.311 60.6086 30.6291 59.9265 29.7876 59.9265C28.9461 59.9265 28.2642 60.6086 28.2642 61.45V63.8875C28.2642 64.7288 28.9463 65.4109 29.7876 65.4109Z" fill="#ED3129"/>
<path d="M29.7876 55.2547C30.6291 55.2547 31.311 54.5726 31.311 53.7312V51.2937C31.311 50.4524 30.6291 49.7703 29.7876 49.7703C28.9461 49.7703 28.2642 50.4524 28.2642 51.2937V53.7312C28.2642 54.5726 28.9463 55.2547 29.7876 55.2547Z" fill="#ED3129"/>
<path d="M87.911 58.635V24.0004C87.911 21.7366 86.0695 19.895 83.8057 19.895H51.6666C49.4028 19.895 47.5613 21.7366 47.5613 24.0004V43.4847C47.5613 44.3261 48.2432 45.0082 49.0847 45.0082C49.9263 45.0082 50.6082 44.3261 50.6082 43.4847V24.0004C50.6082 23.4166 51.0831 22.9419 51.6666 22.9419H83.8057C84.3893 22.9419 84.8642 23.4166 84.8642 24.0004V58.6348C84.8642 59.2186 84.3893 59.6933 83.8057 59.6933H51.6666C51.0831 59.6933 50.6082 59.2186 50.6082 58.6348V50.7194C50.6082 49.8781 49.9263 49.196 49.0847 49.196C48.2432 49.196 47.5613 49.8781 47.5613 50.7194V58.6348C47.5613 60.8986 49.4028 62.7402 51.6666 62.7402H83.8057C86.0693 62.7402 87.911 60.8986 87.911 58.635Z" fill="#ED3129"/>
<path d="M51.6951 66.2334C49.4156 66.2334 47.5613 68.0879 47.5613 70.3674V73.4348C47.5613 75.7143 49.4156 77.5688 51.6951 77.5688H61.9289C64.2084 77.5688 66.0629 75.7143 66.0629 73.4348V70.3674C66.0629 68.0879 64.2084 66.2334 61.9289 66.2334H51.6951ZM63.0158 70.3674V73.4348C63.0158 74.0342 62.5283 74.5219 61.9287 74.5219H51.6949C51.0957 74.5219 50.608 74.0342 50.608 73.4348V70.3674C50.608 69.768 51.0955 69.2803 51.6949 69.2803H61.9287C62.5283 69.2803 63.0158 69.768 63.0158 70.3674Z" fill="#ED3129"/>
<path d="M19.2813 22.8752H27.181C28.0225 22.8752 28.7044 22.1932 28.7044 21.3518C28.7044 20.5105 28.0225 19.8284 27.181 19.8284H19.2813C18.4397 19.8284 17.7578 20.5105 17.7578 21.3518C17.7578 22.1932 18.4397 22.8752 19.2813 22.8752Z" fill="#ED3129"/>
<path d="M19.2812 29.4753H38.6754C39.517 29.4753 40.1989 28.7932 40.1989 27.9519C40.1989 27.1106 39.517 26.4285 38.6754 26.4285H19.2812C18.4397 26.4285 17.7578 27.1106 17.7578 27.9519C17.7578 28.7932 18.4397 29.4753 19.2812 29.4753Z" fill="#ED3129"/>
<path d="M79.0361 44.3815C80.434 44.3815 81.5711 43.2442 81.5711 41.8465V33.6591C81.5711 32.7089 81.0472 31.8469 80.204 31.4093L69.3245 25.7612C68.4636 25.3144 67.435 25.3142 66.5741 25.7614L55.6739 31.4235C54.8311 31.8615 54.3074 32.7233 54.3074 33.6732V41.8463C54.2701 43.606 56.1561 44.6551 57.8924 44.3813V49.5508L55.5672 53.5957C55.1457 54.3287 55.1471 55.2387 55.5707 55.9706C55.994 56.7027 56.7825 57.1573 57.6281 57.1573H78.2723C79.1179 57.1573 79.9063 56.7027 80.3298 55.9708C80.7531 55.2389 80.7545 54.3289 80.333 53.5959L78.0081 49.551V44.3815H79.0361ZM67.9497 28.4805L78.5244 33.9701V35.8472H69.4736V34.7706C69.4736 33.9293 68.7917 33.2472 67.9501 33.2472C67.1086 33.2472 66.4267 33.9293 66.4267 34.7706V35.8472H57.3545V33.9839L67.9497 28.4805ZM57.3545 38.8943H78.5244V41.3344H57.3545V38.8943ZM66.4267 44.3815V48.4342H60.9397V44.3815H66.4267ZM58.7859 54.1106L60.2976 51.4811H75.6028L77.1143 54.1106H58.7859ZM74.961 48.434H69.4736V44.3813H74.961V48.434Z" fill="#ED3129"/>
</g>
<defs>
<clipPath id="clip0">
<rect width="104" height="104" fill="white"/>
</clipPath>
</defs>
</svg>
