<svg width="104" height="104" viewBox="0 0 104 104" fill="none" xmlns="http://www.w3.org/2000/svg">
<path d="M27.625 37.375V34.125H32.5V29.25C32.5 26.5623 30.3127 24.375 27.625 24.375H24.375C23.478 24.375 22.75 23.647 22.75 22.75V21.125H27.625C28.522 21.125 29.25 21.853 29.25 22.75H32.5C32.5 20.0623 30.3127 17.875 27.625 17.875V14.625H24.375V17.875H19.5V22.75C19.5 25.4377 21.6872 27.625 24.375 27.625H27.625C28.522 27.625 29.25 28.353 29.25 29.25V30.875H24.375C23.478 30.875 22.75 30.147 22.75 29.25H19.5C19.5 31.9377 21.6872 34.125 24.375 34.125V37.375H27.625Z" fill="#ED3129"/>
<path d="M43.875 26C43.875 16.1444 35.8556 8.125 26 8.125C16.1444 8.125 8.125 16.1444 8.125 26C8.125 35.8556 16.1444 43.875 26 43.875C35.8556 43.875 43.875 35.8556 43.875 26ZM11.375 26C11.375 17.9351 17.9351 11.375 26 11.375C34.0649 11.375 40.625 17.9351 40.625 26C40.625 34.0649 34.0649 40.625 26 40.625C17.9351 40.625 11.375 34.0649 11.375 26Z" fill="#ED3129"/>
<path d="M94.25 37.375H80.2994L99.5426 18.1301C101.369 16.3036 102.375 13.8759 102.375 11.2937C102.375 5.96212 98.0379 1.625 92.7062 1.625C90.1241 1.625 87.6964 2.63088 85.8699 4.45738L52.9522 37.375H47.5426C49.3447 33.9755 50.375 30.108 50.375 26C50.375 12.5596 39.4404 1.625 26 1.625C12.5596 1.625 1.625 12.5596 1.625 26C1.625 35.334 6.903 43.4476 14.625 47.5426V81.25C14.625 85.7301 18.2699 89.375 22.75 89.375H38.4296L53.5763 101.493C54.288 102.063 55.1834 102.375 56.095 102.375C58.318 102.375 60.125 100.568 60.125 98.345V89.375H94.25C98.7301 89.375 102.375 85.7301 102.375 81.25V45.5C102.375 41.0199 98.7301 37.375 94.25 37.375ZM78.6728 16.25L81.25 13.6727L90.3272 22.75L87.75 25.3273L78.6728 16.25ZM79.7647 21.9375L54.4375 47.2648L51.0494 43.875L76.375 18.5477L79.7647 21.9375ZM49.2749 46.6976L57.3024 54.7251L45.3602 60.0324C44.6924 60.3363 43.875 59.8016 43.875 59.0704C43.875 58.9209 43.9059 58.7762 43.9676 58.6397L49.2749 46.6976ZM53.625 59.917L61.061 56.6118L70.5494 47.125H92.625V79.625H53.625V59.917ZM60.125 52.9506L56.7353 49.5625L82.0625 24.2352L85.4522 27.625L60.125 52.9506ZM88.1676 6.75513C89.3799 5.54288 90.9919 4.875 92.7062 4.875C96.2455 4.875 99.125 7.7545 99.125 11.2937C99.125 13.0081 98.4571 14.6201 97.2449 15.8324L92.625 20.4523L83.5478 11.375L88.1676 6.75513ZM4.875 26C4.875 14.352 14.352 4.875 26 4.875C37.648 4.875 47.125 14.352 47.125 26C47.125 37.648 37.648 47.125 26 47.125C14.352 47.125 4.875 37.648 4.875 26ZM99.125 81.25C99.125 83.9378 96.9378 86.125 94.25 86.125H56.875V98.345C56.875 98.9511 56.0771 99.3363 55.6075 98.9544L39.5704 86.125H22.75C20.0623 86.125 17.875 83.9378 17.875 81.25V48.9531C20.4214 49.8566 23.1481 50.375 26 50.375C33.9511 50.375 41.002 46.5319 45.4545 40.625H49.7023L47.6011 42.7261L47.3866 42.939L40.9955 57.3202C40.7501 57.8744 40.625 58.4643 40.625 59.0704C40.625 61.4445 42.5555 63.375 44.9296 63.375C45.5358 63.375 46.124 63.2499 46.6797 63.0029L50.375 61.3616V79.625C50.375 81.4174 51.8326 82.875 53.625 82.875H92.625C94.4174 82.875 95.875 81.4174 95.875 79.625V47.125C95.875 45.3326 94.4174 43.875 92.625 43.875H73.7994L77.0494 40.625H94.25C96.9378 40.625 99.125 42.8122 99.125 45.5V81.25Z" fill="#ED3129"/>
<path d="M43.875 79.625H47.125V82.875H43.875V79.625Z" fill="#ED3129"/>
<path d="M21.125 79.625H40.625V82.875H21.125V79.625Z" fill="#ED3129"/>
<path d="M21.125 73.125H47.125V76.375H21.125V73.125Z" fill="#ED3129"/>
<path d="M21.125 66.625H47.125V69.875H21.125V66.625Z" fill="#ED3129"/>
<path d="M21.125 60.125H37.375V63.375H21.125V60.125Z" fill="#ED3129"/>
<path d="M21.125 53.625H37.375V56.875H21.125V53.625Z" fill="#ED3129"/>
<path d="M73.125 50.375C65.9571 50.375 60.125 56.2071 60.125 63.375C60.125 70.5429 65.9571 76.375 73.125 76.375C80.2929 76.375 86.125 70.5429 86.125 63.375C86.125 56.2071 80.2929 50.375 73.125 50.375ZM82.7288 61.75H74.75V53.7713C78.8239 54.4603 82.0397 57.6761 82.7288 61.75ZM73.125 73.125C67.7479 73.125 63.375 68.7521 63.375 63.375C63.375 58.5536 66.8964 54.5496 71.5 53.7713V65H82.7288C81.9504 69.6036 77.9464 73.125 73.125 73.125Z" fill="#ED3129"/>
</svg>
