<svg width="104" height="104" viewBox="0 0 104 104" fill="none" xmlns="http://www.w3.org/2000/svg">
<g clip-path="url(#clip0)">
<path d="M88.0928 41.6922C88.0928 29.3555 78.0563 19.3191 65.7197 19.3191C62.8712 19.3191 60.0425 19.8682 57.4161 20.9171V10.4657C57.4161 7.83142 55.2722 5.6875 52.6379 5.6875H32.0612C31.2162 5.6875 30.5322 6.37225 30.5322 7.21649C30.5322 8.06152 31.217 8.74548 32.0612 8.74548H52.6379C53.5861 8.74548 54.3582 9.51752 54.3582 10.4657V23.284C54.3574 23.2991 54.3574 23.3149 54.3582 23.33V30.5941C54.3582 31.5431 53.5861 32.3143 52.6379 32.3143H42.7245C42.0358 32.3143 41.3883 32.5825 40.9003 33.0697L36.9616 37.0092L33.0229 33.0697C32.5357 32.5825 31.8875 32.3143 31.1987 32.3143H21.2861C20.3371 32.3143 19.5659 31.5431 19.5659 30.5941V10.4665C19.5659 9.51752 20.3371 8.74628 21.2861 8.74628H25.9103C26.7554 8.74628 27.4393 8.06152 27.4393 7.21729C27.4393 6.37225 26.7546 5.68829 25.9103 5.68829H21.2861C18.651 5.68829 16.5071 7.83142 16.5071 10.4665V30.5949C16.5071 33.23 18.651 35.3739 21.2861 35.3739H31.0004L35.1375 39.511C35.6405 40.0132 36.3015 40.2648 36.9616 40.2648C37.6218 40.2648 38.2827 40.0132 38.7858 39.511L42.9229 35.3739H44.2527C43.6512 37.4139 43.3466 39.5308 43.3466 41.6922C43.3466 44.3193 43.7909 46.8632 44.6677 49.2848H6.28497C2.81915 49.284 0 52.1031 0 55.5682V85.0261C0 88.4919 2.81915 91.311 6.28497 91.311L20.7981 91.3134L27.0577 97.573C27.6559 98.1713 28.4407 98.4696 29.2262 98.4696C30.0117 98.4696 30.7964 98.1713 31.3947 97.573L37.6599 91.311H52.1674C55.6332 91.311 58.4524 88.4919 58.4524 85.0269V72.1292C58.4524 71.2842 57.7676 70.5994 56.9234 70.5994C56.0792 70.5994 55.3944 71.2842 55.3944 72.1292V85.0269C55.3944 86.805 53.9471 88.2531 52.1682 88.2531H37.6606C36.841 88.2531 36.0714 88.572 35.4921 89.1512L29.2206 95.4108L22.9603 89.1505C22.381 88.572 21.6114 88.2531 20.7925 88.2531H6.28497C4.50604 88.2531 3.05798 86.8058 3.05798 85.0269V55.5682C3.05798 53.79 4.50525 52.342 6.28418 52.342H52.1674C53.9464 52.342 55.3936 53.7892 55.3936 55.5682V65.6387C55.3936 66.483 56.0784 67.1677 56.9226 67.1677C57.7676 67.1677 58.4524 66.483 58.4524 65.6387V62.8577C60.778 63.6591 63.2131 64.0653 65.7197 64.0653C78.0563 64.0653 88.0928 54.0289 88.0928 41.6922ZM52.1674 49.284H47.955C46.9274 46.8893 46.4053 44.34 46.4053 41.6922C46.4053 39.5173 46.7624 37.3972 47.4646 35.3731H52.6379C55.2722 35.3731 57.4161 33.23 57.4161 30.5941V24.2528C59.9917 23.0253 62.8426 22.3771 65.7197 22.3771C76.3694 22.3771 85.034 31.0416 85.034 41.6922C85.034 52.342 76.3694 61.0065 65.7197 61.0065C63.1949 61.0065 60.755 60.5297 58.4524 59.591V55.5682C58.4524 52.1031 55.6332 49.284 52.1674 49.284Z" fill="#ED3129"/>
<path d="M99.7398 66.6987H73.3875C71.0381 66.6987 69.1274 68.6102 69.1274 70.9588V87.8777C69.1274 90.2263 71.0381 92.1378 73.3875 92.1378H81.4522L84.8585 95.5441C85.3282 96.0138 85.9456 96.2487 86.5637 96.2487C87.181 96.2487 87.7991 96.0138 88.2696 95.5441L91.6751 92.1378H99.7398C102.088 92.1378 104 90.2263 104 87.8777V70.9596C104 68.6102 102.088 66.6987 99.7398 66.6987ZM100.942 87.8777C100.942 88.5402 100.402 89.0798 99.7398 89.0798H91.4077C90.7626 89.0798 90.1572 89.3305 89.7018 89.7859L86.5637 92.9249L83.4255 89.7867C82.9701 89.3305 82.3639 89.0798 81.7196 89.0798H73.3875C72.725 89.0798 72.1854 88.5402 72.1854 87.8777V70.9596C72.1854 70.2963 72.7242 69.7575 73.3875 69.7575H99.7398C100.402 69.7575 100.942 70.2963 100.942 70.9596V87.8777Z" fill="#ED3129"/>
<path d="M32.2216 70.3203L32.835 69.8069L33.6752 69.0055C33.8482 68.8341 34.1124 68.5294 34.4687 68.0914C34.825 67.6534 35.0947 67.2575 35.278 66.9044C35.4613 66.5513 35.6343 66.1189 35.7961 65.6055C35.958 65.0922 36.0389 64.5685 36.0389 64.0337C36.0389 62.473 35.4399 61.1788 34.2426 60.1521C33.0452 59.1262 31.4409 58.6128 29.4318 58.6128C27.6354 58.6128 26.2025 59.019 25.1337 59.8315C24.0641 60.6448 23.5293 61.4994 23.5293 62.3976C23.5293 62.8895 23.6943 63.2688 24.0244 63.5362C24.3553 63.8036 24.7227 63.9369 25.1281 63.9369C25.4471 63.9369 25.7296 63.8282 25.9739 63.61C26.2191 63.3918 26.4278 63.1585 26.5976 62.9109C26.7682 62.6634 27.088 62.4301 27.5569 62.2111C28.0258 61.9937 28.6114 61.8842 29.3144 61.8842C30.3157 61.8842 31.1155 62.1223 31.7122 62.5975C32.3081 63.0736 32.6072 63.7441 32.6072 64.6113C32.6072 65.1183 32.4843 65.6103 32.2383 66.0856C31.9923 66.5609 31.7463 66.9203 31.5004 67.1639C31.2544 67.4067 30.8854 67.7391 30.3943 68.1628L29.4636 68.923C28.1805 70.0648 27.5386 71.735 27.5386 73.9329C27.5386 74.6097 27.6513 75.0746 27.8759 75.3286C28.1004 75.5825 28.4797 75.7086 29.0145 75.7086C30.0833 75.7086 30.618 75.3238 30.618 74.5541C30.618 73.4631 30.7037 72.63 30.8751 72.0524C31.0457 71.4747 31.4948 70.8979 32.2216 70.3203Z" fill="#ED3129"/>
<path d="M29.046 78.0183C28.447 78.0183 27.9661 78.2325 27.6027 78.6602C27.2385 79.0879 27.0576 79.6013 27.0576 80.1995C27.0576 80.7772 27.2385 81.285 27.6027 81.723C27.9661 82.1617 28.447 82.3807 29.046 82.3807C29.6443 82.3807 30.1577 82.1617 30.5853 81.723C31.013 81.285 31.2272 80.7772 31.2272 80.1995C31.2272 79.6013 31.013 79.0879 30.5853 78.6602C30.1577 78.2325 29.6443 78.0183 29.046 78.0183Z" fill="#ED3129"/>
<path d="M64.1486 44.0742C64.1486 44.8875 64.6905 45.2929 65.7759 45.2929C66.1743 45.2929 66.5456 45.1866 66.8892 44.9724C67.2319 44.7589 67.4041 44.4598 67.4041 44.0742C67.4041 42.6626 67.4811 40.3108 67.6366 37.0172C67.7913 33.7243 67.8691 31.3717 67.8691 29.9609C67.8691 29.4261 67.6699 28.9985 67.2708 28.6779C66.8717 28.3566 66.3734 28.1963 65.7751 28.1963C65.1769 28.1963 64.6818 28.3518 64.2882 28.6613C63.8954 28.9715 63.6995 29.4047 63.6995 29.9609C63.6995 31.3717 63.774 33.7243 63.924 37.0172C64.0732 40.3108 64.1486 42.6626 64.1486 44.0742Z" fill="#ED3129"/>
<path d="M65.8062 51.965C66.4251 51.965 66.9559 51.746 67.3979 51.3072C67.8406 50.8692 68.062 50.3614 68.062 49.7838C68.062 49.1855 67.8398 48.6721 67.3979 48.2444C66.9559 47.8168 66.4251 47.6025 65.8062 47.6025C65.1619 47.6025 64.6224 47.8168 64.1891 48.2444C63.7551 48.6721 63.5393 49.1855 63.5393 49.7838C63.5393 50.3828 63.7551 50.8962 64.1891 51.3239C64.6224 51.7515 65.1619 51.965 65.8062 51.965Z" fill="#ED3129"/>
<path d="M48.8309 12.0898H24.6916C23.8466 12.0898 23.1626 12.7746 23.1626 13.6188C23.1626 14.4631 23.8474 15.1478 24.6916 15.1478H48.8309C49.6752 15.1478 50.3599 14.4631 50.3599 13.6188C50.3599 12.7746 49.6752 12.0898 48.8309 12.0898Z" fill="#ED3129"/>
<path d="M50.3599 19.7841C50.3599 18.9391 49.6752 18.2551 48.8309 18.2551H24.6916C23.8466 18.2551 23.1626 18.9391 23.1626 19.7841C23.1626 20.6284 23.8474 21.3131 24.6916 21.3131H48.8309C49.6752 21.3131 50.3599 20.6284 50.3599 19.7841Z" fill="#ED3129"/>
<path d="M24.6916 24.4194C23.8466 24.4194 23.1626 25.1042 23.1626 25.9484C23.1626 26.7935 23.8474 27.4782 24.6916 27.4782H36.9616C37.8058 27.4782 38.4906 26.7935 38.4906 25.9484C38.4906 25.1042 37.8058 24.4194 36.9616 24.4194H24.6916Z" fill="#ED3129"/>
<path d="M80.9986 79.5052C80.9986 80.386 80.2845 81.1001 79.403 81.1001C78.5222 81.1001 77.8081 80.386 77.8081 79.5052C77.8081 78.6245 78.5222 77.9104 79.403 77.9104C80.2845 77.9104 80.9986 78.6245 80.9986 79.5052Z" fill="#ED3129"/>
<path d="M87.7906 79.5052C87.7906 80.386 87.0765 81.1001 86.1949 81.1001C85.3142 81.1001 84.6001 80.386 84.6001 79.5052C84.6001 78.6245 85.3142 77.9104 86.1949 77.9104C87.0765 77.9104 87.7906 78.6245 87.7906 79.5052Z" fill="#ED3129"/>
<path d="M94.7379 79.5052C94.7379 80.386 94.0237 81.1001 93.143 81.1001C92.2615 81.1001 91.5474 80.386 91.5474 79.5052C91.5474 78.6245 92.2615 77.9104 93.143 77.9104C94.0237 77.9104 94.7379 78.6245 94.7379 79.5052Z" fill="#ED3129"/>
</g>
<defs>
<clipPath id="clip0">
<rect width="104" height="104" fill="white"/>
</clipPath>
</defs>
</svg>
