<svg width="104" height="104" viewBox="0 0 104 104" fill="none" xmlns="http://www.w3.org/2000/svg">
<g clip-path="url(#clip0)">
<path d="M52.0205 70.3709C50.7804 69.4316 49.2574 69.1213 47.8367 69.3861C47.6135 68.04 46.8969 66.8497 45.8049 66.0226C44.6733 65.1656 43.2762 64.8008 41.8699 64.9948C41.5216 65.0429 41.1832 65.1242 40.8578 65.2361C40.5494 64.1788 39.9122 63.2079 38.9687 62.4933C37.4146 61.3162 35.4167 61.1279 33.7324 61.8206C33.397 60.8112 32.7671 59.9264 31.901 59.2703C30.7696 58.4134 29.3717 58.0488 27.9661 58.2425C26.8259 58.4 25.7912 58.9098 24.9836 59.7001L19.4074 59.3295L22.8252 31.5658L28.9494 31.982C28.9841 31.9843 29.0187 31.9855 29.053 31.9855C29.6213 31.9855 30.1464 31.6678 30.4082 31.1567L32.7034 26.6785C33.2849 25.5448 34.5977 24.9686 35.8252 25.3084L39.2336 26.2509C40.0439 26.4745 40.8836 25.9994 41.108 25.1885C41.3323 24.3777 40.8566 23.5384 40.0457 23.3141L36.6379 22.3718C34.0257 21.6487 31.2307 22.8748 29.9927 25.2881L28.155 28.8738L23.1984 28.537L23.3158 27.5832C23.6911 24.5345 21.5163 21.749 18.4676 21.3737L6.72945 19.9295C5.89299 19.8271 5.13411 20.4204 5.03133 21.2552C4.92855 22.0903 5.52228 22.8506 6.35712 22.9534L18.0953 24.3984C18.7644 24.4807 19.3613 24.8187 19.7761 25.35C20.1909 25.8814 20.3741 26.5426 20.2916 27.2117L16.2609 59.9553C16.0908 61.3363 14.8286 62.3209 13.4476 62.1519L1.70944 60.7068C0.87338 60.6049 0.114102 61.1976 0.0113209 62.0326C-0.09146 62.8677 0.502272 63.628 1.33711 63.7307L13.0753 65.1758C13.3052 65.204 13.5337 65.2178 13.7598 65.2178C15.8174 65.2178 17.6738 64.0746 18.6356 62.332L22.8071 62.6093C22.3085 63.5745 22.1173 64.6671 22.2689 65.7654C22.463 67.1713 23.1931 68.4176 24.3245 69.2744C25.2574 69.9811 26.371 70.353 27.5214 70.353C27.7662 70.353 28.0126 70.3361 28.2594 70.3022C28.2752 70.3 28.2907 70.2969 28.3063 70.2945C28.3083 70.3103 28.3096 70.326 28.3116 70.3418C28.5058 71.7477 29.2358 72.994 30.3672 73.8508C31.3249 74.5759 32.4511 74.9263 33.5689 74.9263C33.8309 74.9263 34.0923 74.905 34.3511 74.8668C34.5266 76.2334 35.2276 77.5316 36.4102 78.4272C37.3679 79.1525 38.494 79.5027 39.6118 79.5027C39.873 79.5027 40.1336 79.4816 40.3916 79.4436C40.3938 79.4605 40.3951 79.4775 40.3973 79.4944C40.5915 80.9002 41.3215 82.1466 42.4531 83.0034C43.3861 83.7098 44.4996 84.082 45.6499 84.082C45.8948 84.082 46.1412 84.0651 46.3878 84.0312C47.7938 83.837 49.04 83.107 49.8968 81.9756L53.0481 77.8146C54.8173 75.479 54.3562 72.1397 52.0205 70.3709ZM27.8428 67.2842C27.2434 67.3671 26.647 67.2113 26.1644 66.8457C25.6818 66.4802 25.3704 65.9485 25.2875 65.3488C25.2046 64.749 25.3604 64.153 25.726 63.6702L26.8865 62.1378C27.2519 61.6552 27.7837 61.3438 28.3833 61.261C28.9831 61.1787 29.5791 61.3339 30.0619 61.6995C30.5445 62.0649 30.8559 62.5967 30.9388 63.1963C31.0217 63.7959 30.8659 64.3919 30.5005 64.8747L29.3398 66.4071C28.9742 66.8897 28.4426 67.2013 27.8428 67.2842ZM32.2071 71.422C31.7245 71.0566 31.4131 70.5248 31.3302 69.9252C31.2474 69.3254 31.4032 68.7294 31.7688 68.2466L32.9292 66.7144C32.9292 66.7144 32.9294 66.7142 32.9294 66.714L33.9542 65.3608C34.3994 64.773 35.0777 64.4636 35.7638 64.4636C36.2406 64.4636 36.7209 64.6131 37.1294 64.9225C38.1258 65.6771 38.3226 67.1014 37.568 68.0979L35.3826 70.9837C34.628 71.98 33.2034 72.1766 32.2071 71.422ZM38.2501 75.9984C37.7674 75.633 37.4561 75.1012 37.3732 74.5014C37.2903 73.902 37.4459 73.306 37.8111 72.8236C37.8113 72.8234 37.8113 72.8232 37.8115 72.823L39.9969 69.937L40.7899 68.8899C41.1553 68.4073 41.6871 68.0959 42.287 68.013C42.887 67.9305 43.4827 68.0859 43.9656 68.4516C44.9615 69.2058 45.1583 70.6294 44.4047 71.6258L41.4255 75.5597C41.4253 75.5599 41.4251 75.5601 41.4251 75.5603C40.6703 76.5562 39.2466 76.753 38.2501 75.9984ZM50.6195 75.9753L47.4682 80.1363C47.1028 80.6189 46.571 80.9303 45.9714 81.0132C45.3712 81.0958 44.7754 80.9402 44.2928 80.5748C43.8102 80.2094 43.4988 79.6776 43.4159 79.078C43.333 78.4782 43.4888 77.8822 43.8545 77.3994L46.8331 73.4665C46.8337 73.4659 46.8341 73.4651 46.8347 73.4645L47.0059 73.2384C47.3714 72.7557 47.9031 72.4444 48.503 72.3615C49.1028 72.2792 49.6987 72.4344 50.1816 72.8C51.1773 73.5542 51.3741 74.9789 50.6195 75.9753Z" fill="#ED3129"/>
<path d="M103.988 62.0326C103.886 61.1977 103.126 60.6048 102.29 60.7068L90.5522 62.1518C89.1692 62.3218 87.909 61.3363 87.739 59.9552L87.6187 58.978L87.5909 58.7517L83.7084 27.2116C83.6259 26.5425 83.8091 25.8815 84.2239 25.35C84.6387 24.8186 85.2357 24.4806 85.9048 24.3983L97.6429 22.9533C98.4779 22.8505 99.0715 22.0902 98.9687 21.2552C98.8659 20.4203 98.1064 19.8274 97.2706 19.9294L85.5324 21.3744C82.6637 21.7276 80.5695 24.2149 80.6449 27.0475L77.6847 27.4119L68.5185 22.2535C67.2206 21.5223 65.7491 21.2082 64.2633 21.3447C64.2602 21.3449 64.2572 21.3458 64.2542 21.346L61.4951 21.6011C60.6572 21.6785 60.0409 22.4205 60.1185 23.2584C60.1959 24.0961 60.9367 24.7113 61.7758 24.635L64.5426 24.379C65.4083 24.299 66.2663 24.4822 67.0235 24.9084L76.5271 30.2566C76.8245 30.4528 77.1865 30.5426 77.5525 30.4977L80.9906 30.0746L83.5124 50.5583L84.3844 57.642L78.9006 57.6465C78.535 57.6467 78.182 57.7785 77.9059 58.0172L77.4816 58.3475L63.7142 46.4818C66.8604 45.5773 69.8596 43.3894 72.6637 39.9458C73.1949 39.2934 73.0968 38.3339 72.4443 37.8025C71.7919 37.2713 70.8321 37.3694 70.301 38.0219C67.1667 41.8711 63.8713 43.8523 60.5059 43.9104C55.6031 44.0026 52.0007 39.9373 51.9676 39.8993C51.668 39.5528 51.2288 39.361 50.771 39.3722C50.3131 39.3852 49.8856 39.6038 49.6065 39.9668L45.5141 45.2927C43.358 48.099 39.6849 49.1447 36.3737 47.8939L35.9368 47.7288C35.5531 47.5837 35.3967 47.2839 35.3378 47.118C35.2789 46.952 35.2106 46.6207 35.4166 46.2661L46.0977 27.8819C46.7885 26.6928 48.0186 25.9073 49.3881 25.7806L55.712 25.1958C56.5499 25.1182 57.1661 24.3762 57.0885 23.5385C57.0109 22.7008 56.2689 22.0847 55.4313 22.1619L49.1074 22.7467C46.7583 22.9641 44.6482 24.3116 43.463 26.3514L32.7819 44.7355C32.1806 45.7706 32.0657 47.0111 32.4668 48.1391C32.868 49.267 33.7404 50.1563 34.8601 50.5792L35.297 50.7443C36.5856 51.231 37.9134 51.466 39.2236 51.466C42.5656 51.4658 45.7891 49.9355 47.9301 47.1492L50.9832 43.1757C52.6194 44.5858 55.6718 46.6743 59.5681 46.9309L79.4631 64.0778C79.8208 64.386 80.0371 64.815 80.072 65.2858C80.107 65.7566 79.9567 66.2131 79.6489 66.5704L78.8736 67.4696C77.8996 68.5977 76.1875 68.7231 75.0573 67.7495C74.9941 67.695 74.9269 67.6483 74.858 67.6061L69.6934 63.1528C69.0566 62.6035 68.0944 62.6746 67.5448 63.3118C66.9953 63.949 67.0666 64.911 67.7038 65.4605L71.9008 69.0793L69.9863 71.3011C69.3981 71.9834 68.5129 72.3281 67.6193 72.2231C67.0845 72.1601 66.5838 71.9389 66.1714 71.5833C66.1641 71.577 66.1562 71.5717 66.1489 71.5656L61.3501 67.4279C60.7129 66.8787 59.7511 66.9498 59.2014 67.587C58.652 68.2242 58.7233 69.1862 59.3605 69.7356L63.0277 72.8977L61.1019 75.1343C60.5134 75.8168 59.6262 76.1615 58.7324 76.0563C57.8966 75.9575 57.1397 76.5559 57.0416 77.3914C56.9435 78.227 57.5411 78.9841 58.3768 79.0822C58.6024 79.1086 58.8275 79.1218 59.0517 79.1218C60.7153 79.1218 62.3076 78.4013 63.4102 77.1231L65.469 74.7321C66.0315 75.0002 66.6362 75.1755 67.2634 75.2492C69.1647 75.4727 71.0442 74.7404 72.2942 73.2905L74.3565 70.8971C76.6372 71.9789 79.4541 71.46 81.1807 69.4598L81.957 68.5593C82.7963 67.585 83.206 66.342 83.1108 65.0597C83.0155 63.7772 82.4262 62.6086 81.4525 61.7699L80.202 60.6923L84.7725 60.6885C85.272 63.321 87.5886 65.218 90.2396 65.218C90.4655 65.218 90.6944 65.2041 90.9242 65.1759L102.662 63.7309C103.497 63.6279 104.091 62.8678 103.988 62.0326Z" fill="#ED3129"/>
<path d="M94.2503 51.0347C91.7864 51.0347 89.7817 53.0391 89.7817 55.503C89.7817 57.9669 91.7864 59.9716 94.2503 59.9716C96.7142 59.9716 98.7186 57.9669 98.7186 55.503C98.7186 53.0391 96.7142 51.0347 94.2503 51.0347ZM94.2503 56.9247C93.4664 56.9247 92.8286 56.2869 92.8286 55.503C92.8286 54.7192 93.4664 54.0815 94.2503 54.0815C95.0341 54.0815 95.6718 54.7192 95.6718 55.503C95.6718 56.2869 95.0341 56.9247 94.2503 56.9247Z" fill="#ED3129"/>
<path d="M14.0541 55.5033C14.0541 53.0394 12.0497 51.0349 9.58578 51.0349C7.12187 51.0349 5.11743 53.0394 5.11743 55.5033C5.11743 57.9672 7.12187 59.9718 9.58578 59.9718C12.0497 59.9718 14.0541 57.9672 14.0541 55.5033ZM8.16431 55.5033C8.16431 54.7194 8.80192 54.0818 9.58578 54.0818C10.3696 54.0818 11.0072 54.7194 11.0072 55.5033C11.0072 56.2871 10.3696 56.9249 9.58578 56.9249C8.80192 56.9249 8.16431 56.2871 8.16431 55.5033Z" fill="#ED3129"/>
</g>
<defs>
<clipPath id="clip0">
<rect width="104" height="104" fill="white"/>
</clipPath>
</defs>
</svg>
