<svg width="28" height="27" viewBox="0 0 28 27" fill="none" xmlns="http://www.w3.org/2000/svg">
<g clip-path="url(#clip0)">
<path d="M9.85198 22.3602C6.77947 20.7984 5.55069 17.0291 7.11245 13.9566L11.0773 6.15646C11.2861 5.74566 11.7877 5.58282 12.1977 5.79121C12.6078 5.99967 12.7719 6.50089 12.5631 6.91169L8.59824 14.7119C7.45333 16.9643 8.3541 19.7291 10.6072 20.8744C12.8603 22.0197 15.6248 21.1179 16.7698 18.8654L20.9234 10.6938C21.6522 9.26009 21.0787 7.50101 19.645 6.77226C18.2112 6.04344 16.4521 6.6169 15.7233 8.05059L11.9473 15.4794C11.635 16.0937 11.8808 16.8478 12.4952 17.1601C13.1096 17.4724 13.8636 17.2265 14.1759 16.6122L17.7631 9.55488C17.9719 9.14409 18.4736 8.98124 18.8835 9.18963C19.2937 9.39809 19.4577 9.89932 19.2489 10.3101L15.6617 17.3675C14.9329 18.8011 13.1737 19.3745 11.74 18.6458C10.3063 17.917 9.73273 16.1579 10.4615 14.7242L14.2376 7.29536C15.3824 5.04308 18.147 4.14115 20.4002 5.28647C22.6533 6.43172 23.554 9.19673 22.4092 11.449L18.2555 19.6207C16.6938 22.6932 12.9245 23.922 9.85198 22.3602Z" fill="white"/>
</g>
<defs>
<clipPath id="clip0">
<rect width="20" height="20" fill="white" transform="translate(10) rotate(26.9443)"/>
</clipPath>
</defs>
</svg>
