<svg width="70" height="48" viewBox="0 0 70 48" fill="none" xmlns="http://www.w3.org/2000/svg">
<rect x="0.5" y="0.5" width="69" height="47" rx="5.5" fill="white" stroke="#D9D9D9"/>
<path fill-rule="evenodd" clip-rule="evenodd" d="M30.0891 36.8966L30.5436 33.9984L29.5313 33.9746H24.6973L28.0567 12.5874C28.0672 12.5226 28.101 12.4625 28.1504 12.4197C28.2001 12.377 28.2634 12.3535 28.3296 12.3535H36.4804C39.1866 12.3535 41.054 12.9188 42.0288 14.0347C42.4859 14.5582 42.777 15.1053 42.9179 15.7073C43.0657 16.339 43.0681 17.0937 42.924 18.0143L42.9136 18.0813V18.6712L43.3707 18.9313C43.7555 19.1363 44.0614 19.3709 44.2961 19.6395C44.687 20.0872 44.9399 20.6562 45.0467 21.3304C45.1572 22.024 45.1207 22.8496 44.9399 23.7841C44.7313 24.8589 44.3942 25.7952 43.9388 26.5611C43.5201 27.2669 42.9866 27.8524 42.353 28.306C41.7481 28.7371 41.0296 29.0644 40.2171 29.2738C39.4297 29.4796 38.5321 29.5835 37.5475 29.5835H36.9132C36.4597 29.5835 36.0192 29.7474 35.6733 30.0414C35.3264 30.3416 35.0972 30.7516 35.0268 31.2001L34.9789 31.4611L34.1759 36.5696L34.1396 36.757C34.1299 36.8164 34.1133 36.846 34.089 36.866C34.0673 36.8843 34.0362 36.8966 34.0057 36.8966H30.0891Z" fill="#28356A"/>
<path fill-rule="evenodd" clip-rule="evenodd" d="M43.8028 18.1492C43.7787 18.3053 43.7507 18.4649 43.7195 18.6289C42.6446 24.1702 38.9671 26.0845 34.2704 26.0845H31.8789C31.3045 26.0845 30.8204 26.5031 30.731 27.0721L29.1599 37.0786C29.1017 37.4523 29.3884 37.7888 29.7637 37.7888H34.0053C34.5074 37.7888 34.9341 37.4224 35.0132 36.9251L35.0548 36.7088L35.8535 31.6204L35.9048 31.3413C35.9829 30.8423 36.4106 30.4757 36.9127 30.4757H37.5471C41.6564 30.4757 44.8735 28.8006 45.8138 23.9529C46.2064 21.9279 46.0031 20.237 44.9638 19.0478C44.6493 18.6893 44.2591 18.3916 43.8028 18.1492Z" fill="#298FC2"/>
<path fill-rule="evenodd" clip-rule="evenodd" d="M42.6779 17.6991C42.5136 17.651 42.3442 17.6075 42.1704 17.5681C41.9957 17.5298 41.8168 17.4958 41.6325 17.466C40.9877 17.3614 40.2811 17.3118 39.5244 17.3118H33.1358C32.9783 17.3118 32.8288 17.3474 32.6952 17.412C32.4005 17.5542 32.1816 17.8343 32.1286 18.1772L30.7694 26.8202L30.7305 27.0722C30.8198 26.5032 31.3039 26.0846 31.8784 26.0846H34.2698C38.9665 26.0846 42.6441 24.1693 43.7189 18.629C43.7511 18.465 43.7781 18.3055 43.8022 18.1493C43.5303 18.0044 43.2358 17.8805 42.9186 17.7749C42.8403 17.7487 42.7595 17.7236 42.6779 17.6991Z" fill="#22284F"/>
<path fill-rule="evenodd" clip-rule="evenodd" d="M32.1296 18.1772C32.1827 17.8344 32.4015 17.5543 32.6963 17.413C32.8309 17.3483 32.9794 17.3126 33.1368 17.3126H39.5254C40.2822 17.3126 40.9888 17.3625 41.6336 17.4671C41.8178 17.4966 41.9967 17.5308 42.1715 17.5692C42.3453 17.6083 42.5147 17.6521 42.679 17.7C42.7605 17.7244 42.8413 17.7498 42.9204 17.775C43.2376 17.8806 43.5323 18.0054 43.8042 18.1494C44.1241 16.1016 43.8016 14.7074 42.6989 13.4449C41.4831 12.0548 39.2891 11.46 36.4814 11.46H28.3304C27.7569 11.46 27.2677 11.8786 27.1791 12.4485L23.7841 34.0557C23.7171 34.4831 24.0455 34.8688 24.4749 34.8688H29.507L32.1296 18.1772Z" fill="#28356A"/>
</svg>
