<svg width="70" height="48" viewBox="0 0 70 48" fill="none" xmlns="http://www.w3.org/2000/svg">
<rect x="0.5" y="0.5" width="69" height="47" rx="5.5" fill="white" stroke="#D9D9D9"/>
<path d="M49.0004 21.5582C48.856 20.6922 48.0622 20.1148 46.9796 20.1148C46.6188 20.1148 46.3301 20.1148 45.9692 20.1148C45.3197 20.0427 45.1754 20.2592 45.1754 20.7644C45.1754 23.2903 45.1754 25.7441 45.1754 28.27C45.1754 29.569 43.8763 30.9403 42.3608 31.2289C37.5976 32.3115 32.8344 33.3218 28.0712 34.4044C27.566 34.5487 26.9887 34.5487 26.4113 34.5487C26.1948 34.5487 25.834 34.4044 25.7618 34.1879C25.6896 34.0435 25.9061 33.7549 26.0505 33.6105C26.267 33.4662 26.5557 33.3218 26.8443 33.1775C27.7104 32.8888 28.6486 32.6002 29.5146 32.3115C33.0509 31.1568 36.5872 30.002 40.1235 28.7752C41.7112 28.27 42.5773 27.1874 42.5773 25.8162C42.6494 21.4861 42.5773 17.0837 42.5773 12.7536C42.5773 12.0319 42.2164 11.4545 41.4226 11.1658C40.4844 10.805 39.6183 11.0937 38.8245 11.4545C33.7726 13.8361 28.7929 16.2177 23.741 18.5993C22.2977 19.321 21.4316 20.3313 21.4316 21.7747C21.4316 25.8884 21.4316 30.0021 21.4316 34.1157C21.4316 34.3322 21.4316 34.5487 21.5038 34.6931C22.009 36.0643 23.308 36.9303 25.0401 36.9303C28.5764 36.9303 32.1127 36.9303 35.649 36.9303C39.1853 36.9303 42.6494 36.9303 46.1857 36.9303C46.9796 36.9303 47.6291 36.786 48.2065 36.2808C48.9282 35.7034 48.9282 34.9096 48.9282 34.1879C48.9282 30.6373 49.0004 21.5582 49.0004 21.5582ZM34.2778 20.2592C34.6386 19.321 35.4325 18.7436 36.5872 18.5993C37.3811 18.5271 38.0306 18.9601 38.1749 19.6818C38.3193 20.7644 37.0202 22.0634 35.649 22.0634C34.5665 22.0634 33.9169 21.2696 34.2778 20.2592Z" fill="#FD6727"/>
</svg>
