<svg width="70" height="48" viewBox="0 0 70 48" fill="none" xmlns="http://www.w3.org/2000/svg">
<rect x="0.5" y="0.5" width="69" height="47" rx="5.5" fill="white" stroke="#D9D9D9"/>
<path fill-rule="evenodd" clip-rule="evenodd" d="M51.2548 24.1292C51.2548 33.0371 44.0339 40.2584 35.1264 40.2584C26.219 40.2584 18.998 33.0371 18.998 24.1292C18.998 15.2213 26.219 8 35.1264 8C44.0339 8 51.2548 15.2213 51.2548 24.1292ZM39.0012 18.1366C41.2447 18.9071 42.8859 20.0607 42.5639 22.2077C42.33 23.7799 41.4553 24.5403 40.2931 24.8065C41.8876 25.6335 42.431 27.2029 41.9261 29.1005C40.9673 31.8314 38.6884 32.0613 35.6572 31.4905L34.9212 34.4261L33.1444 33.9844L33.8703 31.0882C33.4096 30.9742 32.9389 30.8522 32.4539 30.7221L31.725 33.6325L29.9502 33.1908L30.6852 30.2491L27.1063 29.3496L27.9891 27.3226C27.9891 27.3226 29.2992 27.6685 29.281 27.6433C29.7842 27.7673 30.0079 27.4406 30.096 27.2238L32.0904 19.256C32.1127 18.8798 31.9821 18.4059 31.2623 18.2264C31.2896 18.2072 29.9715 17.9067 29.9715 17.9067L30.4443 16.0158L34.0282 16.9003L34.7572 13.9919L36.5329 14.4336L35.8192 17.2845C36.297 17.3924 36.7769 17.5023 37.2437 17.6183L37.9523 14.7855L39.7291 15.2272L39.0012 18.1366ZM34.7498 22.9882C35.9601 23.3091 38.5938 24.0074 39.0529 22.1765C39.5212 20.3033 36.9624 19.7376 35.7096 19.4606C35.5677 19.4292 35.4424 19.4015 35.3403 19.3761L34.4555 22.9117C34.5397 22.9325 34.6386 22.9587 34.7495 22.9881L34.7496 22.9882L34.7498 22.9882ZM33.3784 28.6807C34.8281 29.0626 37.9986 29.8977 38.5031 27.8803C39.0194 25.8175 35.9455 25.1305 34.4456 24.7952L34.4451 24.7951C34.2777 24.7577 34.1299 24.7247 34.009 24.6946L33.033 28.5913C33.1321 28.6158 33.2482 28.6464 33.3781 28.6806L33.3784 28.6807Z" fill="#F7931A"/>
</svg>
