<svg width="24" height="24" viewBox="0 0 24 24" fill="none" xmlns="http://www.w3.org/2000/svg">
<g clip-path="url(#clip0)">
<path d="M1 13C1 12.1743 1.67428 11.5 2.49998 11.5H5.99998V22.4123C5.84278 22.4693 5.67473 22.5 5.49998 22.5H2.49998C1.67429 22.5 1 21.8257 1 21V13Z" stroke="#D0D0D0" stroke-width="2"/>
<path d="M21.966 12.7071L22.611 12.0014C22.8898 11.6963 23.0324 11.2886 22.9932 10.8581C22.9272 10.1442 22.2536 9.50003 21.3811 9.50003H15.2041H13.8219L14.2543 8.18718C14.5587 7.26307 15.0001 5.69369 15.0001 4.50005C15.0001 3.69522 14.6535 2.91412 14.1647 2.3256C13.9229 2.03449 13.6651 1.81402 13.4345 1.67273C13.1917 1.52395 13.0416 1.50006 13.0001 1.50006C12.5736 1.50006 12.2144 1.65376 12.0001 1.77268V4.89103V5.1107L11.9081 5.31014L9.02806 11.5492L9.00012 11.6097V21.2285C9.55105 21.4063 10.128 21.5 10.5001 21.5H19.6791C20.3334 21.5 20.853 21.0594 20.9686 20.5376L21.966 12.7071ZM21.966 12.7071L22.642 13.3831M21.966 12.7071L22.642 13.3831M22.642 13.3831C22.8695 13.6107 23.0001 13.9172 23.0001 14.25C23.0001 14.7272 22.728 15.1492 22.3155 15.3568L21.4236 15.8058L21.8713 16.6984C21.955 16.8654 22.0001 17.0507 22.0001 17.25C22.0001 17.7276 21.7275 18.1499 21.3145 18.3578L20.4222 18.807M22.642 13.3831L20.4222 18.807M20.4222 18.807L20.8705 19.6998M20.4222 18.807L20.8705 19.6998M20.8705 19.6998C20.9948 19.9474 21.0348 20.2374 20.9687 20.5372L20.8705 19.6998Z" stroke="#D0D0D0" stroke-width="2"/>
</g>
<defs>
<clipPath id="clip0">
<rect width="24" height="24" fill="white"/>
</clipPath>
</defs>
</svg>
