<svg width="20" height="20" viewBox="0 0 20 20" fill="none" xmlns="http://www.w3.org/2000/svg">
<g clip-path="url(#clip0)">
<path d="M18.7801 14.7093L15.9831 12.6116C16.6823 11.4128 16.982 10.0143 16.982 8.51591C16.982 3.82088 13.186 0.0249023 8.49101 0.0249023C3.79598 0.0249023 0 3.82088 0 8.51587C0 13.2109 3.79598 17.0069 8.49101 17.0069C9.98943 17.0069 11.2881 16.6073 12.5867 16.0079L14.6845 18.805C15.7833 20.2035 17.8811 20.4033 19.1797 19.1047C20.3784 17.9059 20.2785 15.8081 18.7801 14.7093ZM8.49101 15.009C4.89482 15.009 1.99789 12.1121 1.99789 8.51591C1.99789 4.91972 4.89482 2.02279 8.49101 2.02279C12.0872 2.02279 14.9841 4.91972 14.9841 8.51587C14.9841 12.112 12.0872 15.009 8.49101 15.009Z" fill="white"/>
</g>
<defs>
<clipPath id="clip0">
<rect width="20" height="20" fill="white"/>
</clipPath>
</defs>
</svg>
