<svg width="92" height="92" viewBox="0 0 92 92" fill="none" xmlns="http://www.w3.org/2000/svg">
<path d="M84.0222 38.8183C84.3299 36.7222 82.88 34.7737 80.7841 34.4661L59.1205 31.2991L49.4399 11.5709C49.0913 10.9691 48.591 10.4693 47.9888 10.1214C46.0873 9.02249 43.6548 9.67292 42.5556 11.5746L32.8787 31.2991L11.2151 34.4663C10.3869 34.5877 9.62131 34.977 9.03475 35.5744C7.55069 37.086 7.57339 39.5146 9.08506 40.9987L24.774 56.3807L21.0717 78.0929C21.0366 78.3007 21.0186 78.511 21.0181 78.7221C21.0123 80.8435 22.7273 82.568 24.8489 82.5739C25.4743 82.5729 26.0901 82.4188 26.642 82.1247L45.9996 71.89L65.3534 82.1209C66.1014 82.518 66.9596 82.6562 67.7944 82.514C69.8805 82.1581 71.2831 80.179 70.9275 78.0929L67.2252 56.3807L82.9179 40.9947C83.5131 40.4088 83.9008 39.6447 84.0222 38.8183ZM63.8261 54.344C63.3774 54.7843 63.1719 55.416 63.2758 56.036L67.1466 78.7328L46.8943 68.0262C46.3335 67.7342 45.6657 67.7342 45.1049 68.0262L24.8526 78.7366L28.7232 56.0363C28.8273 55.4163 28.6219 54.7845 28.1729 54.3442L11.7689 38.2622L34.432 34.9492C35.0579 34.8556 35.5979 34.4611 35.8772 33.8935L45.9996 13.2634L56.1218 33.8933C56.4011 34.4609 56.9414 34.8554 57.567 34.949L80.2338 38.2582L63.8261 54.344Z" fill="#35B432"/>
<path d="M63.8261 54.344C63.3774 54.7843 63.1719 55.416 63.2758 56.036L67.1466 78.7328L46.8943 68.0262C46.3335 67.7342 45.6657 67.7342 45.1049 68.0262L24.8526 78.7366L28.7232 56.0363C28.8273 55.4163 28.6219 54.7845 28.1729 54.3442L11.7689 38.2622L34.432 34.9492C35.0579 34.8556 35.5979 34.4611 35.8772 33.8935L45.9996 13.2634L56.1218 33.8933C56.4011 34.4609 56.9414 34.8554 57.567 34.949L80.2338 38.2582L63.8261 54.344Z" fill="#35B432"/>
</svg>
