<svg width="92" height="92" viewBox="0 0 92 92" fill="none" xmlns="http://www.w3.org/2000/svg">
<path d="M84.0224 38.8181C84.3301 36.722 82.8802 34.7735 80.7843 34.4659L59.1207 31.2989L49.4401 11.5707C49.0914 10.9689 48.5912 10.4692 47.989 10.1213C46.0875 9.0223 43.655 9.67274 42.5558 11.5744L32.8789 31.2989L11.2153 34.4661C10.387 34.5875 9.62149 34.9769 9.03494 35.5742C7.55088 37.0858 7.57357 39.5144 9.08524 40.9985L24.7742 56.3805L21.0719 78.0927C21.0368 78.3005 21.0188 78.5108 21.0183 78.7219C21.0125 80.8433 22.7275 82.5678 24.8491 82.5737C25.4745 82.5728 26.0903 82.4186 26.6422 82.1245L45.9998 71.8898L65.3536 82.1207C66.1016 82.5178 66.9598 82.6561 67.7946 82.5138C69.8807 82.1579 71.2833 80.1788 70.9277 78.0927L67.2254 56.3805L82.9181 40.9945C83.5133 40.4087 83.901 39.6445 84.0224 38.8181ZM63.8263 54.3438C63.3775 54.7841 63.1721 55.4158 63.276 56.0359L67.1468 78.7326L46.8945 68.026C46.3337 67.734 45.6659 67.734 45.1051 68.026L24.8528 78.7364L28.7234 56.0361C28.8275 55.4161 28.622 54.7844 28.1731 54.344L11.7691 38.262L34.4322 34.949C35.058 34.8554 35.598 34.461 35.8774 33.8933L45.9998 13.2632L56.122 33.8931C56.4013 34.4607 56.9415 34.8552 57.5672 34.9488L80.234 38.258L63.8263 54.3438Z" fill="#D3D3D3"/>
</svg>
