<svg width="24" height="23" viewBox="0 0 24 23" fill="none" xmlns="http://www.w3.org/2000/svg">
<g clip-path="url(#clip0)">
<path d="M11.75 0C8.33513 0 5.12106 1.53803 2.94531 4.11875V3.41406C2.94531 3.04193 2.64361 2.74023 2.27148 2.74023C1.89935 2.74023 1.59765 3.04193 1.59765 3.41406V6.26606C1.59761 6.26934 1.59765 6.27262 1.59765 6.2759V6.27675C1.59765 6.66479 1.92756 6.97295 2.31326 6.94928L5.00857 6.7819C5.38003 6.75881 5.66241 6.43901 5.63932 6.0676C5.61627 5.69609 5.29499 5.41403 4.92506 5.4368L3.55288 5.52202C5.45712 2.91992 8.49491 1.34766 11.75 1.34766C17.348 1.34766 21.9023 5.90197 21.9023 11.5C21.9023 11.8721 22.204 12.1738 22.5762 12.1738C22.9483 12.1738 23.25 11.8721 23.25 11.5C23.25 5.16786 18.0818 0 11.75 0Z" fill="#D0D0D0"/>
<path d="M21.1867 16.0508L18.4914 16.2181C18.12 16.2411 17.8376 16.5609 17.8607 16.9324C17.8837 17.3038 18.2028 17.5857 18.5749 17.5632L19.9471 17.478C18.0428 20.0801 15.0051 21.6523 11.75 21.6523C6.15197 21.6523 1.59766 17.098 1.59766 11.5C1.59766 11.1279 1.29596 10.8262 0.923828 10.8262C0.551695 10.8262 0.25 11.1279 0.25 11.5C0.25 17.8321 5.41822 23 11.75 23C15.1714 23 18.3833 21.4568 20.5547 18.8812V19.5859C20.5547 19.9581 20.8564 20.2598 21.2285 20.2598C21.6006 20.2598 21.9023 19.9581 21.9023 19.5859V16.7332C21.9087 16.3473 21.5807 16.0271 21.1867 16.0508Z" fill="#D0D0D0"/>
</g>
<defs>
<clipPath id="clip0">
<rect width="23" height="23" fill="white" transform="translate(0.25)"/>
</clipPath>
</defs>
</svg>
