<svg width="55" height="55" viewBox="0 0 55 55" fill="none" xmlns="http://www.w3.org/2000/svg">
<circle cx="27.5" cy="27.5" r="27.5" fill="#7294C7"/>
<path d="M40.9835 34.5336C40.9835 34.4194 40.8693 34.4194 40.8693 34.3052C40.4127 33.392 39.3853 32.2504 38.0154 30.9947C37.3304 30.4239 36.988 29.9673 36.7597 29.739C36.4172 29.2824 36.4172 28.9399 36.5314 28.4833C36.6455 28.1408 37.1021 27.57 37.9012 26.5426C38.3578 25.9718 38.5862 25.6294 38.9286 25.2869C40.641 23.0038 41.4401 21.5197 41.2118 20.8348L41.0976 20.7206C40.9835 20.6065 40.8693 20.4923 40.641 20.4923C40.4127 20.3782 40.0702 20.3782 39.7277 20.4923H35.3898C35.2756 20.4923 35.2756 20.4923 35.0473 20.4923C34.9331 20.4923 34.819 20.4923 34.819 20.4923H34.7048H34.5907L34.4765 20.6065C34.3624 20.7206 34.3624 20.7206 34.3624 20.8348C33.9057 22.0905 33.335 23.1179 32.7642 24.2595C32.4217 24.8303 32.0792 25.401 31.7368 25.8577C31.3943 26.3143 31.166 26.6568 30.9377 26.8851C30.7094 27.1134 30.481 27.2275 30.3669 27.4559C30.2527 27.57 30.0244 27.6842 30.0244 27.57C29.9103 27.57 29.7961 27.57 29.7961 27.4559C29.6819 27.3417 29.5678 27.2275 29.4536 27.1134C29.3395 26.9992 29.3395 26.7709 29.2253 26.5426C29.2253 26.3143 29.2253 26.086 29.2253 25.9718C29.2253 25.8577 29.2253 25.5152 29.2253 25.2869C29.2253 24.9444 29.2253 24.7161 29.2253 24.6019C29.2253 24.2595 29.2253 23.8029 29.2253 23.3462C29.2253 22.8896 29.2253 22.5471 29.2253 22.3188C29.2253 22.0905 29.2253 21.748 29.2253 21.5197C29.2253 21.1773 29.2253 20.9489 29.2253 20.8348C29.2253 20.7206 29.1112 20.4923 29.1112 20.3782C28.997 20.264 28.8829 20.1498 28.7687 20.0357C28.6545 19.9215 28.4262 19.9215 28.3121 19.8074C27.7413 19.6932 27.0564 19.5791 26.2573 19.5791C24.4308 19.5791 23.175 19.6932 22.7184 19.9215C22.4901 20.0357 22.2618 20.1498 22.1476 20.3782C21.9193 20.6065 21.9193 20.7206 22.0335 20.7206C22.6042 20.8348 23.0609 21.0631 23.2892 21.4056L23.4034 21.6339C23.5175 21.748 23.5175 21.9763 23.6317 22.3188C23.7458 22.6613 23.7458 23.0038 23.7458 23.4604C23.7458 24.1453 23.7458 24.8303 23.7458 25.2869C23.7458 25.8577 23.6317 26.2001 23.6317 26.5426C23.6317 26.8851 23.5175 27.1134 23.4034 27.2275C23.2892 27.4559 23.2892 27.57 23.175 27.57C23.175 27.57 23.175 27.6842 23.0609 27.6842C22.9467 27.6842 22.8326 27.7983 22.6042 27.7983C22.4901 27.7983 22.2618 27.6842 22.1476 27.57C21.9193 27.4559 21.691 27.2276 21.5768 26.9992C21.3485 26.7709 21.1202 26.4284 20.8919 25.9718C20.6636 25.5152 20.3211 25.0586 20.0928 24.3736L19.8645 23.917C19.7503 23.6887 19.522 23.2321 19.2937 22.6613C19.0654 22.0905 18.8371 21.6339 18.6088 21.0631C18.4946 20.8348 18.3805 20.7206 18.2663 20.6065H18.1522C18.1522 20.6065 18.038 20.4923 17.9238 20.4923C17.8097 20.4923 17.6955 20.3782 17.5814 20.3782H13.4717C13.0151 20.3782 12.7868 20.4923 12.6726 20.6065L12.5585 20.7206C12.5585 20.7206 12.5585 20.8348 12.5585 20.9489C12.5585 21.0631 12.5585 21.1772 12.6726 21.4056C13.2434 22.7754 13.9284 24.1453 14.6133 25.5152C15.2982 26.7709 15.9832 27.9125 16.4398 28.7116C17.0106 29.5107 17.4672 30.3098 18.038 30.9947C18.6088 31.6797 18.9512 32.1363 19.0654 32.3646C19.2937 32.5929 19.4079 32.7071 19.522 32.8212L19.8645 33.1637C20.0928 33.392 20.4353 33.7345 20.8919 34.0769C21.3485 34.4194 21.9193 34.7619 22.4901 35.1043C23.0609 35.4468 23.7458 35.6751 24.4308 35.9035C25.2299 36.1318 25.9148 36.2459 26.5997 36.1318H28.3121C28.6545 36.1318 28.8829 36.0176 29.1112 35.7893L29.2253 35.6751C29.2253 35.561 29.3395 35.561 29.3395 35.4468C29.3395 35.3327 29.3395 35.2185 29.3395 34.9902C29.3395 34.5336 29.3395 34.1911 29.4536 33.8486C29.5678 33.5062 29.5678 33.2778 29.682 33.0495C29.7961 32.8212 29.9103 32.7071 30.0244 32.5929C30.1386 32.4787 30.2528 32.3646 30.2528 32.3646H30.3669C30.5952 32.2504 30.9377 32.3646 31.166 32.5929C31.5085 32.8212 31.8509 33.1637 32.0792 33.5062C32.3075 33.8486 32.65 34.1911 33.1067 34.6477C33.5633 35.1043 33.9058 35.4468 34.1341 35.561L34.4765 35.7893C34.7048 35.9034 34.9332 36.0176 35.2756 36.1318C35.6181 36.2459 35.8464 36.2459 36.0747 36.2459L39.9561 36.1318C40.2985 36.1318 40.641 36.0176 40.8693 35.9035C41.0976 35.7893 41.2118 35.6751 41.2118 35.4468C41.2118 35.3327 41.2118 35.1044 41.2118 34.9902C40.9834 34.7619 40.9835 34.6477 40.9835 34.5336Z" fill="white"/>
</svg>
