<svg width="55" height="55" viewBox="0 0 55 55" fill="none" xmlns="http://www.w3.org/2000/svg">
<path d="M55 27.5C55 42.6878 42.6878 55 27.5 55C12.3122 55 0 42.6878 0 27.5C0 12.3122 12.3122 0 27.5 0C42.6878 0 55 12.3122 55 27.5Z" fill="#ED1E24"/>
<path d="M30.8361 28.952H28.9057C25.8724 28.952 22.9309 26.8402 22.9309 21.5598C22.9309 16.0602 25.6888 13.816 28.492 13.816H30.8361V28.952ZM33.8694 11H28.6303C23.4817 11 19.1166 14.7406 19.1166 22.0004C19.1166 26.3563 21.2306 29.5684 24.9996 31.1516L17.9672 43.2957C17.737 43.6918 17.9672 44 18.3344 44H21.5978C21.8733 44 22.0581 43.9121 22.1499 43.6918L28.5385 31.768H30.8361V43.6918C30.8361 43.8242 30.9745 44 31.1581 44H34.0078C34.2832 44 34.375 43.8676 34.375 43.6484V11.4394C34.375 11.1324 34.1914 11 33.8694 11Z" fill="white"/>
</svg>
